<svg xmlns="http://www.w3.org/2000/svg" width="40" height="40" viewBox="0 0 40 40">
    <g fill="#22BF8E">
        <path d="M39.998 20.058c0 11.446-9.585 20.388-20.86 19.925C9.273 39.576-.051 31.633 0 19.966.054 7.93 9.968-.02 20.065 0c11.111.027 20.09 9.134 19.933 20.058zM30.18 7.693c-.279.165-.538.36-.775.58-7.004 7.485-14.003 14.98-20.995 22.483-.147.16-.377.33-.396.515-.037.35-.077.85.12 1.03.198.182.713.14 1.033.032.273-.092.476-.408.693-.64 6.921-7.402 13.838-14.807 20.752-22.213.207-.207.376-.45.498-.716.221-.531-.156-1.054-.93-1.077v.006zm.781 16.023c.01-2.63-1.938-4.453-4.478-4.191-3.274.337-6.085 3.287-6.272 6.581-.148 2.49 1.634 4.353 4.129 4.33 3.38-.036 6.608-3.311 6.621-6.726v.006zM15.441 9.274c-2.493-.06-4.855 2.242-4.88 4.757-.027 2.433 1.754 4.309 4.14 4.36 2.507.053 4.79-2.175 4.867-4.76.07-2.417-1.717-4.303-4.126-4.357zM4.972 27.008c-.026-.373-.209-.815-.81-.883-.486-.051-.978.57-.952 1.193.024.537.16 1.058.81 1.127.495.059.96-.606.953-1.437zm24.922 7.784c-.134-.65-.42-.943-.892-.942-.507 0-.728.405-.703.85.025.444.17.979.737.86.316-.07.564-.5.85-.768h.008zm7.306-12.84c-.469-.328-.717-.64-.99-.664-.563-.048-.749.442-.706.883.03.295.333.56.516.838l1.18-1.057zM8.943 6.577c.043-.736-.313-1.04-.738-.986-.281.037-.663.415-.737.705-.103.422.16.814.686.824.504.009.76-.266.789-.543zM3 1.768c-.071.808-.522 1.61-1.392 2.082-.695.379-1.333.018-1.555-.828C-.215 1.998.575.374 1.488.076 2.4-.223 3.023.364 2.999 1.768zm-.336-.172c-.206-.426-.28-.818-.47-.91-.221-.107-.653-.067-.801.11-.398.453-.72.982-.951 1.562-.094.256.096.838.314.99.218.152.737.053.92-.158.399-.455.671-1.053.988-1.594zM2.908 38c-.431-.016-.858-.214-.905-.86-.045-.62.428-1.154.975-1.14.519.013 1.063.53 1.02 1.04-.05.57-.343.958-1.09.96zm.84-.948c-.346-.208-.574-.453-.764-.427-.19.027-.453.357-.433.526.02.17.324.481.498.477.173-.005.38-.295.7-.576zM37.303 4.656c-.025-.354.052-.817-.08-.875-.309-.135-.718-.07-1.223-.094.141-.192.27-.564.515-.649.337-.08.695-.034.996.126.535.29.674 1.245.2 1.644-.237.199-.754.224-1.115.161-.185-.035-.32-.417-.447-.655 0-.017.265-.227.336-.198.22.087.398.249.818.54z"/>
        <path d="M27.358 21c1.728 0 2.827 1.223 2.616 2.926-.293 2.35-2.24 4.462-4.6 4.98-2.021.445-3.467-.726-3.37-2.727.126-2.553 2.826-5.17 5.354-5.179zM13.002 14.33c.068-1.886 1.346-3.374 2.859-3.329 1.306.037 2.206 1.24 2.135 2.874-.073 1.72-1.437 3.188-2.9 3.123-1.247-.054-2.147-1.202-2.094-2.668zM3.658 26c.615.842.305 1.42-.18 2-.684-.698-.642-1.14.18-2z"/>
    </g>
</svg>
