<svg width="48" height="48" viewBox="0 0 48 48" fill="none" xmlns="http://www.w3.org/2000/svg">
<g clip-path="url(#clip0_6043_20498)">
<path fill-rule="evenodd" clip-rule="evenodd" d="M0.191933 27.1292C1.65117 38.9365 11.9398 47.9751 23.9362 48.0001L23.9353 48.0011C25.4636 47.9847 26.9853 47.8359 28.4877 47.5575C39.7008 45.4455 47.9983 35.4295 47.9829 23.9793C47.9829 23.8249 47.9873 23.6682 47.9917 23.5106C48.0186 22.5495 48.0463 21.5565 47.0862 20.8554C46.9758 20.783 46.9472 20.5785 46.9205 20.3881C46.9128 20.3336 46.9054 20.2802 46.8962 20.2314C46.853 19.9915 46.8173 19.7506 46.7815 19.5099C46.7298 19.1614 46.6781 18.8134 46.6043 18.4698C43.825 5.43935 30.7025 -2.60374 17.7316 0.769788C6.1556 3.77754 -1.31146 15.0041 0.191933 27.1292ZM2.47705 25.7089C3.65884 36.706 12.757 44.871 23.7733 44.8518L23.7742 44.8508C27.6278 44.8911 31.4122 43.8466 34.6888 41.8382C41.7411 37.474 45.1261 31.0908 45.1021 22.8922C45.1015 22.7754 45.0942 22.656 45.0869 22.5361C45.0595 22.0895 45.0317 21.6359 45.3489 21.2832C45.7079 20.8934 45.6676 20.4988 45.5812 20.0572C43.256 8.10779 31.4573 0.32007 19.481 2.83149C8.78633 5.07411 1.32502 15.1112 2.47705 25.7089Z" fill="#212529"/>
<path fill-rule="evenodd" clip-rule="evenodd" d="M39.6367 21.5268C39.8233 21.8245 39.9427 22.158 39.9866 22.5048C39.9976 22.6165 40.0018 22.7287 39.9993 22.8409V23.588C39.9892 24.9177 39.9714 26.2275 39.9434 27.4576L39.8926 29.233L39.8622 30.0623V30.1693C39.86 30.2261 39.8541 30.2827 39.8444 30.3387C39.7913 30.6665 39.6088 30.9607 39.3364 31.1579C39.1651 31.2807 38.9652 31.3595 38.7548 31.387C38.6061 31.4004 38.4565 31.4004 38.3078 31.387L37.6221 31.3471C37.1852 31.3198 36.789 31.2874 36.4461 31.255H36.4233C36.4482 31.481 36.4379 31.7094 36.3928 31.9323C36.3349 32.2058 36.232 32.4682 36.088 32.7092C35.7215 33.3073 35.1292 33.7395 34.4397 33.912C34.0455 34.0116 33.634 34.0269 33.2333 33.9568C32.5996 33.8423 32.0233 33.5231 31.5961 33.0502C31.169 32.5772 30.9156 31.9777 30.8763 31.3471C29.1112 31.7082 25.1973 31.6833 23.742 31.2774C23.7643 31.496 23.754 31.7166 23.7115 31.9323C23.6534 32.2049 23.5504 32.4665 23.4068 32.7067C23.0403 33.3048 22.448 33.737 21.7584 33.9095C21.365 34.0087 20.9545 34.024 20.5546 33.9543C20.1285 33.8774 19.7257 33.7071 19.3761 33.4563C19.0189 33.2057 18.7244 32.879 18.5146 32.5008C18.3047 32.1225 18.1851 31.7026 18.1646 31.2724L17.4027 31.3048L16.8693 31.3247H16.5925H16.4528C16.3818 31.3305 16.3104 31.3305 16.2394 31.3247C16.0073 31.2907 15.7902 31.1915 15.6144 31.039C15.4386 30.8866 15.3116 30.6874 15.2489 30.4656C15.2266 30.3885 15.213 30.3092 15.2083 30.2291V30.1295V30.0523L15.1752 28.7873C15.1321 27.0442 15.0965 25.0721 15.066 22.9455L15 16.1874L15 16.1052V14.7555C14.9984 14.5104 15.0494 14.2678 15.1499 14.0434C15.2513 13.8182 15.3995 13.6163 15.5849 13.4504C15.7703 13.2845 15.9889 13.1582 16.2268 13.0797C16.3464 13.0409 16.4698 13.0142 16.595 13H16.783H19.2441L26.6095 13.0224L28.3874 13.0349H29.1493H29.3093C29.6546 13.063 29.9837 13.1908 30.255 13.4022C30.5262 13.6136 30.7274 13.8991 30.8332 14.2226C30.8672 14.3281 30.891 14.4365 30.9043 14.5464C30.9103 14.6409 30.9103 14.7357 30.9043 14.8302V15.6594L30.884 15.5847V15.6619C31.8415 15.5823 33.0936 15.52 34.5337 15.4702C34.843 15.4616 35.1502 15.5225 35.4319 15.6481C35.7136 15.7736 35.9624 15.9607 36.1591 16.1948C36.2589 16.3195 36.3441 16.4548 36.4131 16.5982C36.4713 16.7256 36.5013 16.8008 36.5327 16.8791C36.5423 16.9033 36.5522 16.9278 36.563 16.9543L36.8169 17.5968L37.7922 20.0869L38.4602 20.5002L38.9047 20.7791C39.2004 20.9741 39.45 21.2291 39.6367 21.5268ZM34.526 16.6082C33.0783 16.5609 31.8237 16.4961 30.8636 16.4164C30.8052 20.2288 30.7214 23.5033 30.5995 25.7544C33.8631 25.7917 36.8398 25.8913 38.6329 26.0532C38.6313 25.9535 38.6297 25.8536 38.6281 25.7532C38.6167 25.0439 38.605 24.3185 38.605 23.5855V22.8384C38.608 22.7837 38.608 22.7288 38.605 22.6741C38.5844 22.5207 38.531 22.3733 38.4483 22.2416C38.3655 22.1098 38.2554 21.9967 38.1249 21.9096L37.711 21.6457L36.8423 21.1028C36.7234 21.0233 36.6342 20.9079 36.5884 20.7741L35.6055 18.035L35.3769 17.3826C35.3369 17.2289 35.2717 17.0825 35.1838 16.9493C35.108 16.8471 35.0093 16.7631 34.8953 16.704C34.7813 16.6449 34.655 16.6121 34.526 16.6082ZM23.0639 31.2326C23.0715 31.1952 23.2087 31.1629 23.3814 31.1629C23.382 31.1629 23.3827 31.1628 23.3834 31.1628C23.3992 31.1624 23.4151 31.1624 23.4309 31.1629C23.4305 31.1629 23.4301 31.1629 23.4296 31.1629C23.4141 31.1631 23.3986 31.1631 23.3834 31.1628C23.2062 31.1602 23.0512 31.1298 23.0512 31.0932C23.0147 30.9364 22.962 30.7837 22.8937 30.6375C22.8114 30.4726 22.7082 30.3187 22.5864 30.1793C22.306 29.8618 21.92 29.6518 21.4968 29.5866C21.2664 29.5511 21.031 29.5633 20.8057 29.6225C20.5804 29.6817 20.3702 29.7865 20.1888 29.9303C19.9994 30.0784 19.8464 30.2664 19.7412 30.4805C19.6361 30.6945 19.5815 30.929 19.5815 31.1666C19.5815 31.4042 19.6361 31.6387 19.7412 31.8527C19.8464 32.0668 19.9994 32.2548 20.1888 32.403C20.3706 32.5469 20.5812 32.6518 20.8069 32.711C21.0327 32.7702 21.2686 32.7823 21.4994 32.7466C21.9245 32.6813 22.3123 32.4704 22.594 32.1515C22.7168 32.0114 22.8209 31.8566 22.9039 31.6908C22.9731 31.5438 23.0267 31.3903 23.0639 31.2326ZM23.4309 31.1629C23.5008 31.1648 23.5703 31.1748 23.6379 31.1928V31.138C23.5702 31.1546 23.5007 31.163 23.4309 31.1629ZM35.7426 31.2326C35.7502 31.1952 35.8874 31.1629 36.0601 31.1629C36.0607 31.1628 36.0613 31.1628 36.0619 31.1628C35.8858 31.1599 35.7324 31.1296 35.7324 31.0932C35.696 30.9364 35.6432 30.7837 35.575 30.6375C35.4927 30.4726 35.3894 30.3187 35.2677 30.1793C34.9873 29.8618 34.6013 29.6518 34.1781 29.5866C33.9477 29.5511 33.7122 29.5633 33.4869 29.6225C33.2616 29.6817 33.0515 29.7865 32.8701 29.9303C32.6806 30.0784 32.5276 30.2664 32.4225 30.4805C32.3173 30.6945 32.2627 30.929 32.2627 31.1666C32.2627 31.4042 32.3173 31.6387 32.4225 31.8527C32.5276 32.0668 32.6806 32.2548 32.8701 32.403C33.0519 32.5469 33.2625 32.6518 33.4882 32.711C33.7139 32.7702 33.9498 32.7823 34.1806 32.7466C34.6049 32.6807 34.9917 32.4699 35.2727 32.1515C35.3955 32.0114 35.4997 31.8566 35.5826 31.6908C35.6518 31.5438 35.7054 31.3903 35.7426 31.2326ZM36.1397 31.1626C36.2192 31.1664 36.2978 31.1824 36.3725 31.2102C36.3553 31.1874 36.3416 31.1622 36.3318 31.1355C36.2691 31.1518 36.2046 31.1609 36.1397 31.1626ZM38.6939 30.3536C38.7226 30.3241 38.7435 30.2882 38.7548 30.249H38.7523C38.7567 30.2327 38.7592 30.216 38.7599 30.1992V30.0772L38.7294 29.248L38.6786 27.4725C38.6634 27.2535 38.6634 27.0269 38.6634 26.8029V26.8027C33.9266 27.2335 20.8593 27.2285 16.242 26.7853C16.2267 27.485 16.2115 28.1573 16.1962 28.7973L16.1607 30.0623C16.1541 30.1243 16.1541 30.1869 16.1607 30.249C16.1682 30.289 16.1837 30.3271 16.2064 30.3611C16.229 30.3988 16.259 30.4317 16.2948 30.4577C16.3306 30.4838 16.3713 30.5026 16.4147 30.513C16.4383 30.5153 16.4621 30.5153 16.4858 30.513H16.6255H16.9023L17.4357 30.5329L18.2662 30.5677C18.3831 30.0209 18.6626 29.5202 19.0694 29.1289C19.4762 28.7376 19.9921 28.4732 20.552 28.369C20.9526 28.2981 21.364 28.3125 21.7584 28.4113C22.4496 28.5831 23.0437 29.0153 23.4118 29.614C23.5554 29.8544 23.6583 30.1159 23.7166 30.3885C23.7193 30.4038 23.7224 30.419 23.7255 30.4341C23.7339 30.4751 23.742 30.5152 23.742 30.5553C25.2202 30.1419 29.2178 30.1245 30.9449 30.5005C31.0746 29.9664 31.3596 29.4807 31.7654 29.1024C32.1712 28.724 32.6802 28.4692 33.2307 28.369C33.6313 28.298 34.0428 28.3124 34.4371 28.4113C35.1283 28.5831 35.7225 29.0153 36.0906 29.614C36.2398 29.8517 36.3487 30.1116 36.4131 30.3835C36.4317 30.4482 36.441 30.5113 36.441 30.5727C36.7865 30.5403 37.1801 30.508 37.617 30.4806L38.3027 30.4407C38.606 30.431 38.6197 30.4189 38.6892 30.3577L38.6939 30.3536ZM16.5 14.5C16.5 14.5 19 14 20 14C21 14 23.6 14.6 24 15C24.5 15.5 23.618 15.5 22.5 15.5H17C16.5 15.5 16.5 14.8333 16.5 14.5Z" fill="black"/>
<path d="M4 16.9233C4.73828 16.7698 5.49414 16.6504 6.25 16.531L7.375 16.3775C7.74414 16.3264 8.11328 16.2923 8.5 16.2411C8.86914 16.207 9.23828 16.1217 9.625 16.0535C9.99414 15.9853 10.3633 15.9853 10.75 16.0365C11.1191 16.0876 11.4883 16.19 11.875 16.3264C12.2441 16.4628 12.6133 16.6333 13 16.9062V17.0938C12.6309 17.3667 12.2617 17.5372 11.875 17.6736C11.5059 17.81 11.1367 17.8953 10.75 17.9635C10.3809 18.0147 10.0117 18.0147 9.625 17.9465C9.25586 17.8783 8.88672 17.793 8.5 17.7589C8.13086 17.7248 7.76172 17.6736 7.375 17.6225L6.25 17.469C5.49414 17.3837 4.73828 17.2814 4 17.1279V16.9233Z" fill="black"/>
<path d="M3 21.9233C3.73828 21.7698 4.49414 21.6504 5.25 21.531L6.375 21.3775C6.74414 21.3264 7.11328 21.2923 7.5 21.2411C7.86914 21.207 8.23828 21.1217 8.625 21.0535C8.99414 20.9853 9.36328 20.9853 9.75 21.0365C10.1191 21.0876 10.4883 21.19 10.875 21.3264C11.2441 21.4628 11.6133 21.6333 12 21.9062V22.0938C11.6309 22.3667 11.2617 22.5372 10.875 22.6736C10.5059 22.81 10.1367 22.8953 9.75 22.9635C9.38086 23.0147 9.01172 23.0147 8.625 22.9465C8.25586 22.8783 7.88672 22.793 7.5 22.7589C7.13086 22.7248 6.76172 22.6736 6.375 22.6225L5.25 22.469C4.49414 22.3837 3.73828 22.2814 3 22.1279V21.9233Z" fill="black"/>
<path d="M4 26.9233C4.73828 26.7698 5.49414 26.6504 6.25 26.531L7.375 26.3775C7.74414 26.3264 8.11328 26.2923 8.5 26.2411C8.86914 26.207 9.23828 26.1217 9.625 26.0535C9.99414 25.9853 10.3633 25.9853 10.75 26.0365C11.1191 26.0876 11.4883 26.19 11.875 26.3264C12.2441 26.4628 12.6133 26.6333 13 26.9062V27.0938C12.6309 27.3667 12.2617 27.5372 11.875 27.6736C11.5059 27.81 11.1367 27.8953 10.75 27.9635C10.3809 28.0147 10.0117 28.0147 9.625 27.9465C9.25586 27.8783 8.88672 27.793 8.5 27.7589C8.13086 27.7248 7.76172 27.6736 7.375 27.6225L6.25 27.469C5.49414 27.3837 4.73828 27.2814 4 27.1279V26.9233Z" fill="black"/>
</g>
<defs>
<clipPath id="clip0_6043_20498">
<rect width="48" height="48" fill="white"/>
</clipPath>
</defs>
</svg>
