<svg xmlns="http://www.w3.org/2000/svg" width="50" height="50" viewBox="0 0 50 50">
    <g fill="none">
        <path fill="#000" d="M25.173 50C13.01 49.982 2.762 41.595.575 30.1c-.416-2-.518-4.051-.303-6.082.092-.46.039-.937-.151-1.366-.195-.382-.11-.806-.052-1.212C1.649 10.074 11.179 1.045 22.589.094c13.43-1.118 24.962 7.878 27.105 21.16 2.18 13.511-7.559 26.634-21.125 28.467-1.126.153-2.26.246-3.396.279z"/>
        <path fill="#FEFEFE" d="M48.462 24.742c-.052 13.089-10.713 23.314-23.63 22.94-10.64-.301-19.694-7.947-21.968-18.534-.37-1.742-.555-3.518-.55-5.298 0-.217-.037-.491.075-.639.61-.793.61-1.754.774-2.655C5.293 9.706 14.956 2.06 26.223 2.314c10.96.247 20.397 8.52 21.968 19.27.148 1.047.239 2.101.27 3.158z"/>
        <path fill="#000" d="M8.606 31.378V29.7c-.024-.78-.181-1.43-.874-2.01-1.16-.977-1.033-3.05.13-4.05.374-.325.788-.6 1.233-.816.76-.358.968-.932.804-1.694-.108-.513-.235-1.023-.39-1.518-.29-1.071-.366-2.19-.223-3.291.115-1.214 1.735-2.638 3.189-2.863.841-.13 1.688-.217 2.539-.261 2.088-.11 3.255-1.166 3.626-3.227.532-2.845 2.93-4.415 5.486-3.601.579.193 1.099.53 1.512.98 1.907 1.974 4.155 2.733 6.876 2.077 1.22-.246 2.481-.191 3.675.161 1.732.446 2.763 1.94 2.883 3.914.037 1.434.258 2.858.66 4.235.55 1.672 1.435 3.069 2.97 3.916 2.527 1.4 2.162 3.67 1.119 5.362-.426.642-.9 1.25-1.418 1.821-1.103 1.296-1.907 2.672-1.686 4.487.084.913-.06 1.833-.42 2.675-.786 2.004-2.165 3.142-4.38 3.094-1.765-.04-3.497.324-5.25.415-.881.071-1.726.386-2.44.911-.87.632-1.679 1.343-2.417 2.125-1.932 1.959-4.603 1.394-6.145.374-.568-.377-.876-.972-1.148-1.585-.224-.5-.475-.993-.735-1.475-.843-1.555-2.088-2.378-3.914-2.399-2.17-.024-3.96-.826-4.966-2.92-.477-.987-.22-2.065-.296-3.158z"/>
        <path fill="#FEFEFE" d="M25.675 36.153C19.718 36.07 15.074 31.63 14.643 25.6c-.406-5.666 3.667-10.692 9.42-11.629 4.943-.77 9.75 2.045 11.562 6.77.168.44.289.897.361 1.363.096.64.075 1.277.664 1.759.314.257.27.754.272 1.173.057 6.026-5.167 11.2-11.247 11.116z"/>
        <path fill="#000" d="M16.154 24.673c-.009-4.218 2.792-7.914 6.823-9.005 4.13-1.04 8.44.846 10.516 4.602.273.516.518 1.047.735 1.59.273.644.689 1.258.051 1.976-.194.217-.121.693-.14 1.052-.248 4.7-3.36 8.284-7.727 8.88-2.59.345-5.203-.456-7.168-2.198-1.964-1.741-3.09-4.255-3.09-6.897z"/>
        <path fill="#FDFDFD" d="M25.97 30c-.407-.016-.796-.163-1.102-.416-1.69-1.225-3.366-2.453-5.03-3.685-.45-.333-.845-.758-.436-1.308.408-.55.965-.333 1.45-.05 1.343.781 2.749 1.485 3.918 2.493.544.475.832.547 1.31-.181 1.115-1.697 2.385-3.305 3.617-4.931.276-.346.603-.652.973-.91.376-.333.967-.322 1.33.024.19.155.302.379.307.615.006.237-.096.465-.279.628-1.267 1.283-2.046 2.865-3.126 4.262-.604.79-1.13 1.632-1.57 2.514-.263.538-.66.945-1.362.945z"/>
    </g>
</svg>
