<svg width="61" height="60" viewBox="0 0 61 60" fill="none" xmlns="http://www.w3.org/2000/svg">
<path d="M22.575 1.99969C22.4897 1.92787 22.391 1.87367 22.2845 1.8402C22.1781 1.80673 22.0661 1.79466 21.955 1.80469C20.92 1.80469 18.955 2.68969 16.98 4.67469C14.455 7.19969 13.705 9.67469 14.3 10.2747C14.895 10.8747 17.375 10.1197 19.9 7.59469C22.425 5.06969 23.17 2.58469 22.575 1.99969Z" fill="#22BF8E"/>
<path d="M32 43.7147C31.845 43.7147 31.695 43.7147 31.545 43.7147L29.43 47.3247C29.4124 47.3542 29.4031 47.3879 29.4031 47.4222C29.4031 47.4565 29.4124 47.4902 29.43 47.5197C29.446 47.5507 29.4705 47.5766 29.5006 47.5942C29.5306 47.6119 29.5651 47.6208 29.6 47.6197H34.4C34.4349 47.6208 34.4694 47.6119 34.4994 47.5942C34.5295 47.5766 34.554 47.5507 34.57 47.5197C34.5887 47.4906 34.5987 47.4568 34.5987 47.4222C34.5987 47.3876 34.5887 47.3538 34.57 47.3247L32.465 43.6997C32.315 43.7047 32.165 43.7147 32 43.7147Z" fill="white"/>
<path d="M32.0001 5.55469C29.1682 5.57692 26.4234 6.53695 24.1951 8.28469L27.2551 14.9547L20.7151 11.9547C18.3349 15.4634 17.0825 19.6151 17.1251 23.8547C17.1251 33.3997 23.1001 41.2597 30.6851 42.0797C30.9751 42.1147 31.2601 42.1347 31.5551 42.1447C31.7001 42.1447 31.8501 42.1447 32.0001 42.1447C32.1501 42.1447 32.3001 42.1447 32.4451 42.1447C32.7401 42.1447 33.0301 42.1147 33.3151 42.0797C40.9151 41.2597 46.8851 33.3997 46.8851 23.8547C46.8851 13.7647 40.2101 5.55469 32.0001 5.55469ZM45.2151 23.8547C45.2166 25.7392 44.9437 27.6138 44.4051 29.4197C42.7351 34.9497 38.1551 39.8447 32.1151 39.9997H31.8551C31.6999 39.9997 31.5511 39.938 31.4414 39.8283C31.3317 39.7186 31.2701 39.5698 31.2701 39.4147C31.2701 39.2595 31.3317 39.1107 31.4414 39.001C31.5511 38.8913 31.6999 38.8297 31.8551 38.8297C33.3 38.8369 34.7299 38.537 36.0501 37.9497C41.3851 35.5047 44.0501 29.4497 44.0501 23.8547C44.0501 23.7775 44.0653 23.7011 44.0948 23.6299C44.1243 23.5586 44.1676 23.4938 44.2222 23.4393C44.2767 23.3847 44.3415 23.3414 44.4127 23.3119C44.484 23.2824 44.5604 23.2672 44.6376 23.2672C44.7147 23.2672 44.7911 23.2824 44.8624 23.3119C44.9337 23.3414 44.9984 23.3847 45.053 23.4393C45.1076 23.4938 45.1508 23.5586 45.1804 23.6299C45.2099 23.7011 45.2251 23.7775 45.2251 23.8547H45.2151Z" fill="white"/>
<path d="M22.2951 7.84967L22.1501 7.53467L21.0001 8.68967L19.8501 9.83967L20.2401 10.0147L20.9551 10.3447L21.7001 10.6847L24.1001 11.7847L22.9751 9.32967L22.6301 8.57967L22.2951 7.84967Z" fill="#22BF8E"/>
<path d="M32 3.99983C28.9468 4.01914 25.9802 5.01621 23.535 6.84483L23.15 5.99983C24.345 3.99983 24.8 1.99983 23.68 0.884829C22 -0.780171 18.415 1.02483 15.875 3.56483C13.335 6.10483 11.535 9.69983 13.2 11.3648C13.4262 11.5795 13.6933 11.7463 13.9854 11.8554C14.2775 11.9645 14.5886 12.0137 14.9 11.9998C16.1133 11.9112 17.2822 11.506 18.29 10.8248L19.29 11.2848C16.8312 15.0091 15.5394 19.3823 15.58 23.8448C15.58 33.9098 21.805 42.2398 29.845 43.5298L28.095 46.5298C27.9416 46.7956 27.8602 47.0969 27.8592 47.4038C27.8581 47.7107 27.9373 48.0126 28.0889 48.2794C28.2405 48.5463 28.4593 48.7689 28.7235 48.925C28.9877 49.0812 29.2882 49.1656 29.595 49.1698H31.255C31.2008 51.0447 31.3686 52.9194 31.755 54.7548C32.31 57.0098 33.44 58.3448 35.35 59.6748C35.97 60.1098 36.555 59.0948 35.94 58.6748C32.595 56.3448 32.44 52.8998 32.44 49.1748H34.41C34.7175 49.1721 35.0189 49.0887 35.284 48.9328C35.5491 48.777 35.7686 48.5542 35.9205 48.2869C36.0724 48.0195 36.1514 47.7169 36.1495 47.4095C36.1477 47.102 36.0651 46.8004 35.91 46.5348L34.16 43.5348C42.215 42.2498 48.445 33.9198 48.445 23.8548C48.445 12.9048 41.07 3.99983 32 3.99983ZM24.1 11.7848L21.7 10.6848L20.955 10.3448L20.24 9.99983L19.85 9.82483L21 8.67483L22.15 7.51983L22.295 7.83483L22.63 8.56483L22.975 9.31483L24.1 11.7848ZM14.3 10.2848C13.705 9.68983 14.455 7.20983 16.98 4.68483C18.98 2.68483 20.92 1.81483 21.955 1.81483C22.0655 1.80343 22.1771 1.81389 22.2835 1.84564C22.3898 1.87738 22.4889 1.92978 22.575 1.99983C23.17 2.59483 22.425 5.06983 19.9 7.59483C17.375 10.1198 14.9 10.8598 14.3 10.2648V10.2848ZM34.58 47.3098C34.5988 47.3389 34.6087 47.3727 34.6087 47.4073C34.6087 47.4419 34.5988 47.4758 34.58 47.5048C34.564 47.5358 34.5396 47.5617 34.5095 47.5794C34.4794 47.5971 34.4449 47.6059 34.41 47.6048H29.61C29.5752 47.6059 29.5407 47.5971 29.5106 47.5794C29.4805 47.5617 29.4561 47.5358 29.44 47.5048C29.4224 47.4754 29.4131 47.4417 29.4131 47.4073C29.4131 47.373 29.4224 47.3393 29.44 47.3098L31.555 43.6998C31.705 43.6998 31.855 43.6998 32.01 43.6998C32.165 43.6998 32.315 43.6998 32.465 43.6998L34.58 47.3098ZM33.325 42.0798C33.04 42.1148 32.75 42.1348 32.455 42.1448C32.31 42.1448 32.16 42.1448 32.01 42.1448C31.86 42.1448 31.71 42.1448 31.565 42.1448C31.27 42.1448 30.985 42.1148 30.695 42.0798C23.11 41.2598 17.135 33.3998 17.135 23.8548C17.0924 19.6152 18.3449 15.4636 20.725 11.9548L27.265 14.9548L24.205 8.28483C26.4307 6.53918 29.1716 5.57926 32 5.55483C40.2 5.55483 46.875 13.7648 46.875 23.8548C46.885 33.3998 40.915 41.2598 33.325 42.0798Z" fill="black"/>
<path d="M36.05 37.9499C34.7317 38.5458 33.3017 38.8543 31.855 38.8549C31.6999 38.8549 31.5511 38.9165 31.4414 39.0262C31.3317 39.136 31.27 39.2847 31.27 39.4399C31.27 39.595 31.3317 39.7438 31.4414 39.8536C31.5511 39.9633 31.6999 40.0249 31.855 40.0249H32.115C38.155 39.8499 42.735 34.9549 44.415 29.4249C44.9537 27.619 45.2265 25.7444 45.225 23.8599C45.225 23.7048 45.1634 23.556 45.0537 23.4462C44.944 23.3365 44.7952 23.2749 44.64 23.2749C44.4849 23.2749 44.3361 23.3365 44.2264 23.4462C44.1167 23.556 44.055 23.7048 44.055 23.8599C44.035 29.4699 41.385 35.4999 36.05 37.9499Z" fill="black"/>
</svg>
