<svg width="61" height="60" viewBox="0 0 61 60" fill="none" xmlns="http://www.w3.org/2000/svg">
<path d="M33.71 36.9297L31.71 36.4297L33.54 35.4997L34.245 35.1447C36.135 34.1997 38.745 32.9147 40.485 30.2197C41.8829 28.0711 42.8618 25.6773 43.37 23.1647C44.255 19.2547 44.5 12.4997 42.77 4.73975C41.23 7.14975 38.925 9.73975 36.595 12.2397L35.195 19.5747L34.135 18.2397C33.6578 17.6028 33.0822 17.0458 32.43 16.5897C26.13 23.1047 18.385 31.1897 18.62 37.4997C18.695 39.5447 19.585 41.2997 21.34 42.8647C21.46 42.9747 23.84 45.1097 29.425 43.1947C31.925 42.3347 34.21 40.5997 36.2 38.0347C35.95 37.7197 34.8 37.1997 33.71 36.9297ZM27.3 33.1597C25.525 35.1997 23.97 37.5797 23.47 40.2797C23.33 41.0197 22.205 40.7048 22.34 39.9697C22.6615 38.3728 23.2714 36.8479 24.14 35.4697C25.5993 33.1693 27.3941 31.0998 29.465 29.3297C30.4809 28.4097 31.5566 27.5578 32.685 26.7797C33.31 26.3597 33.89 27.3697 33.275 27.7797C32.905 28.0297 32.545 28.2797 32.195 28.5697C30.4165 29.9353 28.7769 31.4727 27.3 33.1597Z" fill="white"/>
<path d="M19.3499 43.9996L14.9599 46.1946C14.943 46.2024 14.9283 46.2142 14.9169 46.229C14.9056 46.2438 14.8981 46.2612 14.8949 46.2796C14.8921 46.2974 14.8933 46.3157 14.8985 46.333C14.9037 46.3503 14.9127 46.3662 14.9249 46.3796L17.2999 48.9696C17.3136 48.9846 17.3309 48.9957 17.3502 49.0019C17.3695 49.008 17.3901 49.0089 17.4099 49.0046C17.4301 49.0028 17.4493 48.9953 17.4653 48.9828C17.4812 48.9704 17.4933 48.9537 17.4999 48.9346L19.4999 44.1546C19.5076 44.1334 19.5092 44.1106 19.5045 44.0886C19.4998 44.0666 19.489 44.0464 19.4734 44.0302C19.4577 44.014 19.4379 44.0026 19.416 43.9972C19.3942 43.9918 19.3713 43.9926 19.3499 43.9996Z" fill="white"/>
<path d="M37.45 38.9998C37.6088 38.8098 37.7158 38.5819 37.7605 38.3384C37.8051 38.0948 37.786 37.8438 37.705 37.6098C37.47 36.9348 36.705 36.4248 35.895 36.0598C37.805 35.0598 40.095 33.6748 41.79 31.0598C43.2911 28.758 44.343 26.1928 44.89 23.4998C45.39 21.3748 46.73 13.5748 43.815 2.45479L43.28 0.404785L42.36 2.30479C41.025 5.05479 38.045 8.40479 35.305 11.3048L35.15 11.4998L34.275 16.0698C33.695 15.4998 33 14.9998 32.395 14.9648C32.2244 14.954 32.0534 14.9802 31.8938 15.0414C31.7342 15.1027 31.5896 15.1976 31.47 15.3198C24.935 22.0998 16.8 30.5348 17.065 37.5598C17.1301 39.3574 17.7658 41.0876 18.88 42.4998C18.8027 42.5237 18.7274 42.5538 18.655 42.5898L14.265 44.7848C14.0312 44.8992 13.8272 45.0665 13.6693 45.2735C13.5114 45.4804 13.4039 45.7214 13.3554 45.9771C13.3069 46.2329 13.3186 46.4964 13.3897 46.7469C13.4608 46.9973 13.5893 47.2277 13.765 47.4198L16.155 49.9998C16.3111 50.1705 16.5011 50.3068 16.7129 50.3998C16.9247 50.4928 17.1537 50.5405 17.385 50.5398C17.4839 50.5414 17.5828 50.533 17.68 50.5148C17.957 50.4687 18.2176 50.3526 18.4372 50.1776C18.6569 50.0026 18.8282 49.7745 18.935 49.5148L20.935 44.7348C20.9628 44.6664 20.9862 44.5962 21.005 44.5248C22.2731 45.221 23.704 45.5662 25.15 45.5248C26.7754 45.4989 28.3853 45.2049 29.915 44.6548C32.735 43.7098 35.265 41.7948 37.45 38.9998ZM19.5 44.1498L17.5 48.9298C17.4933 48.9489 17.4813 48.9656 17.4653 48.9781C17.4494 48.9905 17.4301 48.998 17.41 48.9998C17.3902 49.0042 17.3696 49.0032 17.3503 48.9971C17.331 48.9909 17.3136 48.9798 17.3 48.9648L14.925 46.3748C14.9128 46.3615 14.9037 46.3455 14.8985 46.3282C14.8934 46.3109 14.8921 46.2926 14.895 46.2748C14.8981 46.2564 14.9057 46.2391 14.917 46.2243C14.9283 46.2095 14.9431 46.1976 14.96 46.1898L19.35 43.9998C19.372 43.9884 19.3971 43.984 19.4217 43.9875C19.4463 43.9909 19.4693 44.0019 19.4874 44.0189C19.5055 44.0359 19.5179 44.0581 19.5228 44.0824C19.5278 44.1068 19.525 44.1321 19.515 44.1548L19.5 44.1498ZM29.41 43.1998C23.81 45.1148 21.445 42.9798 21.325 42.8698C19.585 41.3048 18.695 39.5498 18.62 37.4998C18.385 31.1848 26.12 23.0998 32.43 16.5648C33.0823 17.0208 33.6578 17.5778 34.135 18.2148L35.195 19.5498L36.595 12.2148C38.925 9.71479 41.23 7.14478 42.77 4.71479C44.515 12.4848 44.27 19.2148 43.37 23.1198C42.8694 25.64 41.8956 28.0424 40.5 30.1998C38.74 32.8948 36.15 34.1998 34.26 35.1248L33.54 35.4998L31.695 36.4498L33.695 36.9498C34.785 37.2198 35.935 37.7398 36.195 38.0598C34.21 40.6048 31.93 42.3398 29.425 43.1998H29.41Z" fill="black"/>
<path d="M41.5 37.9547C41.18 37.2747 40.17 37.8697 40.5 38.5447C42.855 43.5747 43.06 50.2447 39.27 54.6597C38.3159 55.7711 37.141 56.6719 35.82 57.3047C35.14 57.6297 35.735 58.6347 36.41 58.3047C41.98 55.6247 44.02 49.1097 43.17 43.3047C42.8751 41.45 42.3126 39.6479 41.5 37.9547Z" fill="black"/>
<path d="M43.8949 36.9449C45.5652 40.3972 46.013 44.3146 45.165 48.0549C44.9849 48.7849 46.115 49.0999 46.29 48.3649C47.2087 44.3239 46.7201 40.0903 44.9049 36.3649C44.5849 35.6749 43.5799 36.2649 43.8949 36.9449Z" fill="black"/>
<path d="M33.275 27.79C33.89 27.37 33.31 26.36 32.685 26.79C31.5566 27.568 30.4809 28.4199 29.465 29.34C27.3926 31.1161 25.5977 33.1924 24.14 35.5C23.2715 36.8781 22.6615 38.403 22.34 40C22.205 40.735 23.34 41.05 23.47 40.31C23.97 37.61 25.525 35.23 27.3 33.19C28.7775 31.5064 30.417 29.9724 32.195 28.61C32.545 28.31 32.905 28.04 33.275 27.79Z" fill="black"/>
</svg>
