<svg width="61" height="60" viewBox="0 0 61 60" fill="none" xmlns="http://www.w3.org/2000/svg">
<path d="M48.39 32.0351C47.9088 30.5646 46.9473 29.2984 45.66 28.4401C44.5331 27.7258 43.2188 27.3637 41.885 27.4001H25.74C23.1 27.4001 20.46 27.4001 17.825 27.4001H17.625C17.5652 27.4074 17.5048 27.4074 17.445 27.4001L17.335 27.3651C17.273 27.3496 17.2139 27.3243 17.16 27.2901L17.085 27.2451C17.0353 27.2125 16.9885 27.1757 16.945 27.1351L16.9 27.0901C16.8575 27.0465 16.8206 26.9978 16.79 26.9451L16.74 26.8701C16.7099 26.8141 16.6848 26.7555 16.665 26.6951L16.635 26.5951C16.6193 26.5312 16.611 26.4658 16.61 26.4001V26.3101C16.6106 26.246 16.619 26.1822 16.635 26.1201C16.6444 26.0844 16.6561 26.0493 16.67 26.0151C16.6859 25.9556 16.7095 25.8985 16.74 25.8451L16.79 25.7651C16.8194 25.7131 16.8565 25.6659 16.9 25.6251L16.945 25.5801C16.9876 25.5364 17.0365 25.4993 17.09 25.4701L17.16 25.4201C17.216 25.39 17.2746 25.3649 17.335 25.3451L17.465 25.3051C17.5182 25.2999 17.5718 25.2999 17.625 25.3051C18.05 25.3051 18.475 25.3051 18.885 25.3051H40.835C42.6 25.3051 44.03 25.1451 45.275 24.3651C46.2277 23.791 47.0182 22.9834 47.5719 22.0187C48.1255 21.054 48.4239 19.964 48.4389 18.8518C48.454 17.7396 48.1851 16.6419 47.6577 15.6626C47.1303 14.6833 46.3619 13.8547 45.425 13.2551C43.925 12.2201 42.145 12.2201 40.255 12.2201H31.655C31.3144 12.2199 30.9773 12.1511 30.6638 12.018C30.3503 11.8849 30.0667 11.69 29.83 11.4451C29.5907 11.2028 29.4033 10.9142 29.2795 10.5969C29.1557 10.2797 29.098 9.94044 29.11 9.60008C29.1375 9.05876 29.1375 8.5164 29.11 7.97508C29.1075 7.95014 29.1075 7.92502 29.11 7.90008V5.79008C29.1075 5.77183 29.1075 5.75333 29.11 5.73508C29.1338 5.36505 29.082 4.99406 28.9577 4.64473C28.8334 4.29539 28.6392 3.97504 28.387 3.70321C28.1349 3.43139 27.8299 3.21378 27.4909 3.06366C27.1519 2.91354 26.7858 2.83407 26.415 2.83008C25.699 2.83338 25.0118 3.11284 24.4967 3.61024C23.9817 4.10763 23.6783 4.78459 23.65 5.50008V11.4501C23.65 11.6601 23.65 11.9051 23.675 12.1451C23.7449 13.1664 24.0905 14.1496 24.675 14.9901C25.116 15.6253 25.6662 16.1772 26.3 16.6201C26.7641 16.9299 27.2689 17.1739 27.8 17.3451C28.77 17.6901 30 17.6601 31.195 17.6351H32.13H41.95C42.0065 17.6278 42.0636 17.6278 42.12 17.6351L42.235 17.6701C42.2971 17.6899 42.3573 17.715 42.415 17.7451L42.495 17.7951L42.635 17.9051L42.675 17.9501C42.719 17.9936 42.7577 18.0423 42.79 18.0951L42.835 18.1651C42.8651 18.2211 42.8902 18.2797 42.91 18.3401L42.94 18.4401C42.9581 18.5035 42.9665 18.5692 42.965 18.6351V18.7301C42.9669 18.7943 42.9585 18.8585 42.94 18.9201L42.91 19.0251C42.8902 19.0855 42.8651 19.1441 42.835 19.2001L42.785 19.2751C42.7556 19.327 42.7186 19.3742 42.675 19.4151L42.635 19.4601C42.5901 19.5011 42.5416 19.5379 42.49 19.5701L42.415 19.6201C42.3598 19.6506 42.301 19.6741 42.24 19.6901H42.2L42.06 19.7251C42.0144 19.7387 41.9675 19.7471 41.92 19.7501C41.27 19.7851 40.615 19.7501 39.98 19.7501H38.98H18.165C17.93 19.7501 17.705 19.7501 17.49 19.7501C15.9524 19.829 14.485 20.4184 13.32 21.4251C12.3476 22.2668 11.658 23.3876 11.345 24.6351C11.0018 26.0073 11.103 27.453 11.634 28.764C12.1651 30.075 13.0986 31.1836 14.3 31.9301C15.4064 32.5837 16.6756 32.9096 17.96 32.8701H42.185C42.2456 32.8735 42.3058 32.8819 42.365 32.8951L42.475 32.9301C42.538 32.9495 42.5984 32.9763 42.655 33.0101L42.725 33.0551C42.7779 33.0831 42.8253 33.1203 42.865 33.1651L42.905 33.2051C42.9534 33.2497 42.9939 33.3021 43.025 33.3601C43.0434 33.381 43.0586 33.4046 43.07 33.4301C43.101 33.4839 43.1261 33.5409 43.145 33.6001L43.175 33.7051C43.1907 33.7672 43.1991 33.831 43.2 33.8951V34.0001C43.1991 34.0658 43.1907 34.1312 43.175 34.1951L43.145 34.3001C43.1252 34.3589 43.1001 34.4158 43.07 34.4701L43.02 34.5501C42.9877 34.6029 42.949 34.6515 42.905 34.6951L42.865 34.7351C42.8221 34.7784 42.7733 34.8154 42.72 34.8451L42.65 34.8901C42.5961 34.9243 42.537 34.9496 42.475 34.9651L42.35 35.0001C42.2968 35.0049 42.2432 35.0049 42.19 35.0001C41.745 35.0001 41.3 35.0001 40.87 35.0001H18.275C18.095 35.0001 17.91 35.0001 17.73 35.0001C16.0263 35.0089 14.3888 35.6607 13.145 36.8251C12.3256 37.6081 11.7252 38.5917 11.4033 39.6784C11.0814 40.7651 11.0492 41.9171 11.31 43.0201C11.5575 44.1069 12.0849 45.1101 12.84 45.9301C13.5874 46.7558 14.5343 47.3756 15.59 47.7301C16.66 48.1351 17.96 48.1151 19.225 48.0901H20.07H27.915C28.6313 48.0905 29.32 48.3664 29.8384 48.8607C30.3569 49.3549 30.6654 50.0296 30.7 50.7451C30.7025 50.77 30.7025 50.7951 30.7 50.8201V52.7951C30.6964 53.5404 30.9833 54.2579 31.5 54.7951C31.8825 55.178 32.37 55.4388 32.9009 55.5445C33.4317 55.6502 33.9819 55.5961 34.4819 55.3889C34.982 55.1817 35.4093 54.8308 35.7098 54.3807C36.0103 53.9305 36.1704 53.4013 36.17 52.8601V47.8601C36.1501 46.5366 35.6489 45.2658 34.76 44.2851C34.2531 43.7505 33.6407 43.327 32.9616 43.0413C32.2826 42.7556 31.5516 42.6138 30.815 42.6251C28.6384 42.6251 26.4717 42.6251 24.315 42.6251H21C20.625 42.6251 20.25 42.6251 19.865 42.6251C19.145 42.6251 18.395 42.6651 17.65 42.6251H17.515L17.355 42.5801C17.2808 42.5565 17.2089 42.5264 17.14 42.4901L17.07 42.4451C17.0181 42.4157 16.9709 42.3786 16.93 42.3351L16.89 42.2951C16.8447 42.2496 16.8044 42.1993 16.77 42.1451C16.7529 42.1214 16.7378 42.0963 16.725 42.0701C16.6941 42.0162 16.6689 41.9592 16.65 41.9001L16.62 41.7951C16.604 41.733 16.5956 41.6692 16.595 41.6051V41.5001C16.5956 41.436 16.604 41.3722 16.62 41.3101C16.6294 41.2727 16.6411 41.236 16.655 41.2001C16.6701 41.1419 16.6937 41.0863 16.725 41.0351L16.775 40.9501C16.8073 40.9001 16.8441 40.8533 16.885 40.8101L16.93 40.7701C16.9736 40.7261 17.0222 40.6874 17.075 40.6551L17.145 40.6101C17.201 40.58 17.2596 40.5549 17.32 40.5351H17.36L17.5 40.5001C17.5482 40.4952 17.5968 40.4952 17.645 40.5001C18.3 40.4601 18.965 40.5001 19.605 40.5001C19.94 40.5001 20.27 40.5001 20.605 40.5001H42.105C43.5196 40.4839 44.8922 40.0177 46.024 39.169C47.1558 38.3204 47.988 37.1334 48.4 35.7801C48.7606 34.5613 48.7502 33.2629 48.37 32.0501L48.39 32.0351Z" fill="white"/>
<path d="M16.71 15.8903C17.45 15.7653 17.135 14.6353 16.4 14.7653C14.729 15.0486 13.1318 15.6641 11.7028 16.5753C10.2737 17.4865 9.04187 18.6749 8.07998 20.0703C7.65498 20.6903 8.66498 21.2753 9.07998 20.6603C9.9677 19.3949 11.1005 18.3207 12.4111 17.5013C13.7218 16.6819 15.1836 16.1341 16.71 15.8903Z" fill="black"/>
<path d="M52.465 31.8054C52.7332 33.3227 52.6943 34.8784 52.3508 36.3804C52.0073 37.8825 51.366 39.3004 50.465 40.5504C50.035 41.1654 51.045 41.7504 51.465 41.1404C52.4443 39.7564 53.1372 38.1908 53.503 36.5353C53.8688 34.8799 53.9001 33.1681 53.595 31.5004C53.46 30.7554 52.33 31.0654 52.465 31.8054Z" fill="black"/>
<path d="M49.8649 31.5302C49.2698 29.7462 48.1029 28.2084 46.5449 27.1552C45.9977 26.7809 45.4 26.4863 44.7699 26.2802C45.2349 26.115 45.6808 25.9005 46.0999 25.6402C47.2716 24.9293 48.2438 23.9327 48.9254 22.7438C49.607 21.5548 49.9758 20.2124 49.9973 18.8421C50.0188 17.4718 49.6922 16.1184 49.0482 14.9087C48.4042 13.699 47.4637 12.6724 46.3149 11.9252C44.4149 10.6102 42.3149 10.6052 40.2549 10.6102H31.6549C31.5226 10.6096 31.3917 10.5828 31.2699 10.5313C31.148 10.4798 31.0375 10.4047 30.9449 10.3102C30.8528 10.2147 30.7807 10.1019 30.7326 9.9783C30.6845 9.85469 30.6615 9.72276 30.6649 9.59017C30.6948 9.00555 30.6948 8.41979 30.6649 7.83517L30.6899 5.78017C30.7271 4.63974 30.3096 3.53127 29.5295 2.69861C28.7493 1.86595 27.6704 1.3773 26.5299 1.34017C25.3895 1.30304 24.281 1.72047 23.4484 2.50062C22.6157 3.28077 22.1271 4.35974 22.0899 5.50017V11.4502C22.0899 11.6952 22.0899 11.9902 22.1249 12.2952C22.2146 13.595 22.6552 14.8461 23.3999 15.9152C23.9368 16.6737 24.5978 17.3363 25.3549 17.8752C25.5157 17.9939 25.6826 18.104 25.8549 18.2052H18.1849C17.9299 18.2052 17.6849 18.2052 17.3999 18.2052C15.5338 18.3069 13.7526 19.0183 12.3299 20.2302C11.0949 21.2845 10.2207 22.699 9.82993 24.2752C9.41476 25.9678 9.54626 27.7484 10.2056 29.3616C10.8649 30.9748 12.0181 32.3378 13.4999 33.2552C13.961 33.5405 14.4523 33.7736 14.9649 33.9502C13.9085 34.3346 12.9396 34.9262 12.1149 35.6902C11.1042 36.6525 10.3598 37.8601 9.95413 39.1954C9.54846 40.5307 9.49533 41.9482 9.79993 43.3102C10.0922 44.6694 10.7391 45.927 11.6749 46.9552C12.5927 47.9807 13.7581 48.7537 15.0599 49.2002C16.4099 49.7002 17.9299 49.7002 19.2749 49.6652H20.0949H27.9149C28.2298 49.6659 28.5325 49.787 28.7612 50.0035C28.9898 50.2201 29.1271 50.5158 29.1449 50.8302V52.7702C29.1194 53.9077 29.5463 55.0088 30.3319 55.8319C31.1174 56.6549 32.1975 57.1326 33.3349 57.1602H33.4699C34.5965 57.1307 35.6682 56.6677 36.4619 55.8676C37.2555 55.0674 37.7097 53.9919 37.7299 52.8652V47.8302C37.7025 46.1329 37.0592 44.5035 35.9199 43.2452C35.4916 42.7717 34.9943 42.3655 34.4449 42.0402H41.5449C41.7449 42.0402 41.9449 42.0402 42.1449 42.0402C43.8891 42.0215 45.582 41.4477 46.9781 40.4022C48.3743 39.3566 49.4012 37.8936 49.9099 36.2252C50.3705 34.6917 50.3548 33.0545 49.8649 31.5302ZM48.4199 35.7652C48.0106 37.1213 47.1795 38.3116 46.0475 39.1631C44.9154 40.0146 43.5414 40.483 42.1249 40.5002H20.6249C20.2949 40.5002 19.9649 40.5002 19.6249 40.5002C18.9849 40.5002 18.3199 40.4702 17.6649 40.5002C17.6101 40.4939 17.5547 40.4939 17.4999 40.5002L17.3599 40.5402H17.3199C17.2595 40.56 17.2009 40.5851 17.1449 40.6152L17.0749 40.6602C17.0221 40.6925 16.9735 40.7312 16.9299 40.7752L16.8849 40.8152C16.844 40.8583 16.8072 40.9052 16.7749 40.9552L16.7249 41.0402C16.6936 41.0914 16.67 41.147 16.6549 41.2052C16.641 41.2411 16.6293 41.2778 16.6199 41.3152C16.6039 41.3773 16.5955 41.4411 16.5949 41.5052V41.5952C16.5955 41.6593 16.6039 41.7231 16.6199 41.7852L16.6499 41.8902C16.6688 41.9493 16.694 42.0063 16.7249 42.0602C16.7377 42.0864 16.7528 42.1115 16.7699 42.1352C16.8043 42.1894 16.8446 42.2397 16.8899 42.2852L16.9299 42.3252C16.9708 42.3687 17.018 42.4058 17.0699 42.4352L17.1399 42.4802C17.2088 42.5165 17.2807 42.5466 17.3549 42.5702L17.5149 42.6152H17.6499C18.3949 42.6602 19.1499 42.6152 19.8649 42.6152C20.2499 42.6152 20.6249 42.6152 20.9999 42.6152H24.2649C26.4383 42.6152 28.6049 42.6152 30.7649 42.6152C31.5016 42.6039 32.2325 42.7456 32.9115 43.0314C33.5906 43.3171 34.203 43.7406 34.7099 44.2752C35.5988 45.2559 36.1001 46.5267 36.1199 47.8502V52.8502C36.1148 53.383 35.954 53.9027 35.6575 54.3455C35.361 54.7882 34.9416 55.1347 34.4509 55.3424C33.9602 55.5501 33.4194 55.6098 32.8952 55.5144C32.3709 55.419 31.886 55.1725 31.4999 54.8052C30.9833 54.268 30.6963 53.5505 30.6999 52.8052V50.8302C30.7024 50.8052 30.7024 50.7801 30.6999 50.7552C30.6653 50.0397 30.3568 49.365 29.8383 48.8708C29.3199 48.3765 28.6312 48.1006 27.9149 48.1002H20.0699H19.2249C17.9599 48.1252 16.6599 48.1452 15.5899 47.7402C14.5342 47.3857 13.5873 46.7658 12.8399 45.9402C12.0848 45.1202 11.5574 44.117 11.3099 43.0302C11.0491 41.9272 11.0813 40.7752 11.4032 39.6885C11.7251 38.6018 12.3255 37.6182 13.1449 36.8352C14.3871 35.6671 16.0249 35.0117 17.7299 35.0002C17.9099 35.0002 18.0949 35.0002 18.2749 35.0002H40.8699C41.2999 35.0002 41.7449 35.0002 42.1899 35.0002C42.2431 35.005 42.2967 35.005 42.3499 35.0002L42.4999 34.9502C42.5619 34.9347 42.621 34.9094 42.6749 34.8752L42.7449 34.8302C42.7982 34.8005 42.847 34.7635 42.8899 34.7202L42.9299 34.6802C42.9739 34.6366 43.0126 34.588 43.0449 34.5352L43.0949 34.4552C43.125 34.4009 43.1501 34.344 43.1699 34.2852L43.1999 34.1802C43.2062 34.1203 43.2062 34.06 43.1999 34.0002V33.9102C43.199 33.8461 43.1906 33.7823 43.1749 33.7202L43.1449 33.6152C43.126 33.556 43.1009 33.499 43.0699 33.4452C43.0585 33.4197 43.0433 33.3961 43.0249 33.3752C42.9939 33.3172 42.9533 33.2648 42.9049 33.2202L42.8649 33.1802C42.8252 33.1354 42.7778 33.0982 42.7249 33.0702L42.6549 33.0002C42.5983 32.9664 42.5379 32.9396 42.4749 32.9202L42.3649 32.8852C42.3057 32.872 42.2455 32.8636 42.1849 32.8602H17.9599C16.6755 32.8997 15.4063 32.5738 14.2999 31.9202C13.1062 31.176 12.1779 30.074 11.6473 28.7713C11.1167 27.4686 11.0109 26.0316 11.3449 24.6652C11.6579 23.4177 12.3475 22.2969 13.3199 21.4552C14.4889 20.45 15.96 19.8641 17.4999 19.7902C17.7149 19.7902 17.9399 19.7902 18.1749 19.7902H38.9999H39.9999C40.6349 19.7902 41.2899 19.8202 41.9399 19.7902C41.9874 19.7871 42.0344 19.7788 42.0799 19.7652L42.2199 19.7302H42.2599C42.321 19.7142 42.3797 19.6907 42.4349 19.6602L42.5099 19.6102C42.5615 19.578 42.61 19.5412 42.6549 19.5002L42.6949 19.4552C42.7385 19.4143 42.7756 19.3671 42.8049 19.3152L42.8549 19.2402C42.885 19.1841 42.9101 19.1256 42.9299 19.0652L42.9599 18.9602C42.9784 18.8986 42.9868 18.8344 42.9849 18.7702V18.6752C42.9865 18.6093 42.978 18.5435 42.9599 18.4802L42.9299 18.3802C42.9101 18.3198 42.885 18.2612 42.8549 18.2052L42.8099 18.1352C42.7776 18.0824 42.7389 18.0337 42.6949 17.9902L42.6549 17.9452L42.4999 17.8252L42.4199 17.7752C42.3622 17.7451 42.302 17.72 42.2399 17.7002L42.1249 17.6652C42.0685 17.6579 42.0114 17.6579 41.9549 17.6652H32.0999H31.1649C29.9699 17.6652 28.7399 17.7202 27.7699 17.3752C27.2388 17.204 26.734 16.96 26.2699 16.6502C25.6379 16.2004 25.0911 15.6417 24.6549 15.0002C24.0704 14.1597 23.7248 13.1765 23.6549 12.1552C23.6549 11.9152 23.6299 11.6552 23.6299 11.4602V5.50017C23.6417 4.77242 23.9384 4.07832 24.4563 3.56694C24.9743 3.05556 25.6721 2.76769 26.3999 2.76517C26.7707 2.76916 27.1368 2.84864 27.4758 2.99875C27.8148 3.14887 28.1198 3.36648 28.3719 3.63831C28.6241 3.91014 28.8183 4.23049 28.9426 4.57982C29.0669 4.92915 29.1187 5.30015 29.0949 5.67017C29.0925 5.68842 29.0925 5.70692 29.0949 5.72517V7.83517C29.0925 7.86011 29.0925 7.88523 29.0949 7.91017C29.1224 8.45149 29.1224 8.99385 29.0949 9.53517C29.0829 9.87553 29.1406 10.2147 29.2644 10.532C29.3882 10.8493 29.5756 11.1379 29.8149 11.3802C30.0516 11.6251 30.3352 11.82 30.6487 11.9531C30.9622 12.0862 31.2993 12.155 31.6399 12.1552H40.2399C42.1299 12.1552 43.9149 12.1552 45.4099 13.1902C46.3468 13.7898 47.1152 14.6184 47.6426 15.5977C48.17 16.577 48.4389 17.6747 48.4239 18.7869C48.4088 19.8991 48.1104 20.9891 47.5568 21.9538C47.0032 22.9185 46.2126 23.7261 45.2599 24.3002C44.0149 25.0802 42.5849 25.2402 40.8199 25.2402H18.8849C18.4749 25.2402 18.0499 25.2402 17.6249 25.2402C17.5717 25.235 17.5181 25.235 17.4649 25.2402L17.3349 25.2802C17.2745 25.3 17.2159 25.3251 17.1599 25.3552L17.0899 25.4052C17.0364 25.4344 16.9875 25.4715 16.9449 25.5152L16.8999 25.5602C16.8564 25.601 16.8193 25.6482 16.7899 25.7002L16.7399 25.7802C16.7094 25.8336 16.6858 25.8907 16.6699 25.9502C16.656 25.9844 16.6443 26.0195 16.6349 26.0552C16.6189 26.1173 16.6105 26.1811 16.6099 26.2452V26.3352C16.6109 26.4009 16.6193 26.4663 16.6349 26.5302L16.6649 26.6302C16.6848 26.6906 16.7098 26.7491 16.7399 26.8052L16.7899 26.8802C16.8205 26.9328 16.8574 26.9815 16.8999 27.0252L16.9449 27.0702C16.9884 27.1108 17.0352 27.1476 17.0849 27.1802L17.1599 27.2252C17.2139 27.2594 17.2729 27.2847 17.3349 27.3002L17.4449 27.3352C17.5047 27.3424 17.5651 27.3424 17.6249 27.3352H17.8249C20.4599 27.3352 23.0999 27.3352 25.7399 27.3352H41.8849C43.2187 27.2988 44.533 27.6609 45.6599 28.3752C46.9473 29.2335 47.9087 30.4996 48.3899 31.9702C48.7834 33.203 48.7938 34.5262 48.4199 35.7652Z" fill="black"/>
</svg>
