<svg xmlns="http://www.w3.org/2000/svg" viewBox="0 0 382.8 249.42"><defs><style>.cls-1{fill:#b1efdb;}.cls-2{fill:#020202;}.cls-3{fill:#030303;}.cls-4{fill:#0b0b0b;}.cls-5{fill:#fefefe;}.cls-6{fill:#fdfdfd;}.cls-7{fill:#f9f9f9;}.cls-8{fill:#f5f5f5;}.cls-9{fill:#f3f3f3;}.cls-10{fill:#e6e6e6;}.cls-11{fill:#f7f7f7;}.cls-12{fill:#f6f6f6;}.cls-13{fill:#dfdfdf;}.cls-14{fill:#eaeaea;}.cls-15{fill:#efefef;}.cls-16{fill:#e4e4e4;}.cls-17{fill:#dbdbdb;}.cls-18{fill:#eee;}.cls-19{fill:#ddd;}.cls-20{fill:#ebebeb;}.cls-21{fill:#e8e8e8;}.cls-22{fill:#f0f0f0;}.cls-23{fill:#c3c3c3;}.cls-24{fill:#e2e2e2;}.cls-25{fill:#ececec;}.cls-26{fill:#b9b9b9;}.cls-27{fill:#c6c6c6;}.cls-28{fill:#c4c4c4;}.cls-29{fill:#a4a4a4;}.cls-30{fill:#dedede;}.cls-31{fill:#cbcbcb;}.cls-32{fill:#9f9f9f;}.cls-33{fill:#fcfcfc;}.cls-34{fill:#090909;}.cls-35{fill:#050505;}.cls-36{fill:#0d0d0d;}.cls-37{fill:#0a0a0a;}.cls-38{fill:#101010;}.cls-39{fill:#1d1d1d;}.cls-40{fill:#7c7c7c;}</style></defs><title>Asset 4</title><g id="Layer_2" data-name="Layer 2"><g id="Layer_1-2" data-name="Layer 1"><path class="cls-1" d="M225.17,144.72s37.28,11.23,39.52-20.66-12.06-75.91,18-80.84,167,101,59.73,157.64C267.52,240.36,225.17,144.72,225.17,144.72Z"/><path d="M62.49,162.37c2.17-1.79,2.77-4.31,3.9-6.59,1,.56,1,1.67,1.21,2.52,5.72,19.33,11.91,38.53,16.16,58.27.08.35.17.71.28,1.05.34,1.16.7,2.54,2.26,2.07s1.16-1.79.85-3c-1.65-6.42-3.23-12.86-4.94-19.27a4.27,4.27,0,0,1,.52-3.82c7.69-11.7,15.38-23.43,24.89-33.75,12.63-13.72,27.56-23.88,46.06-28.08,3.54-.8,7-2.1,10.63-2.34a1.93,1.93,0,0,0,1.19-.5c.76-.79.55-7.46-.21-8.38a24.88,24.88,0,0,1-2-2.27c-2-3.19-3.73-6-8.69-4.11-3.53,1.32-6.3-1.87-6.08-5.92a5.41,5.41,0,0,0-1.1-3.94c-1.86-2.49-1-5.29.13-7.78.68-1.47.5-2-.76-3-4.5-3.41-7.18-7.87-7.15-13.7,0-4.58,2.24-7.53,6.49-8.75-1.86-6.39-2.73-12.57,1.69-18.26a1.59,1.59,0,0,0,.12-2c-3.5-7.57.21-11.39,5.16-15.36a7.56,7.56,0,0,0,2.15-2.29,9.21,9.21,0,0,1,11.06-4.5,1.89,1.89,0,0,0,1.51,0c4.16-1.8,8.58-2.24,13-2.33.89,0,2.08-.09,2.64.41,2.59,2.35,5.09,1.07,7.83.38,6.78-1.71,10.89.14,14.6,6.19a1.66,1.66,0,0,0,1.74.89A19.29,19.29,0,0,1,217.26,37,7.68,7.68,0,0,1,221.39,46a2.67,2.67,0,0,0,1,3c3.5,3.27,3.86,9.84.83,13.68a1.91,1.91,0,0,0-.53,1.92A4.84,4.84,0,0,1,220,70.67c6.94,6.2,6.16,14.53-2,20.37-1.91,1.36-2.38,2.2-1,4.34a6.85,6.85,0,0,1,0,8,2.42,2.42,0,0,0-.2,2.47c1.39,4.64-1.22,8-6,7.85a11.87,11.87,0,0,1-4.53-.76c-1.81-.86-2.49-.15-3.39,1.23a44.39,44.39,0,0,1-4,5.14,4.11,4.11,0,0,0-1,3.16c.05,4,1.81,6,5.73,7.11,4.15,1.18,8,3.39,12,5,1.52.63,1.62,1.35.73,2.62a14.33,14.33,0,0,0-1.76,4.9c1.12-1.34,1.87-2.12,2.49-3,2.13-3,2.13-3,5.39-1.15,8.49,4.91,15.66,11.47,22.62,18.28,10,9.77,18.38,20.82,26,32.5a4.3,4.3,0,0,1,.23,5.17A67.84,67.84,0,0,0,264.78,208c-.35,1.11-1.07,2.48.35,3.14,1.67.77,2.16-.87,2.67-2,2.66-5.77,5.19-11.6,7.88-17.35,3.76-8,9-15.11,13.62-22.63A73.72,73.72,0,0,1,297,158c1.36-1.52.15-7.39-1.91-9a23,23,0,0,1-4.67-5.62c-1.79-2.63-1.3-5.15,1.21-7.2,3.09-2.53,6.15-5.12,9.37-7.48,1.67-1.22,1.88-2.37,1-4.15-1.42-3-1.54-6.34-2.17-9.54-.23-1.2.14-2.24,1.61-2.28,1.64,0,1.69-1,1.41-2.22-.2-.89-.31-1.79-.49-2.68-1-4.93-.7-5.68,4.09-6.52q9.65-1.7,19.39-2.86c3.53-.42,3.76,0,4.22,3.6.14,1.08.24,2.17.4,3.24.24,1.56.5,3,2.64,3.11,1.35.09,1.75,1.4,1.91,2.65.68,5.22,1.45,10.44,2,15.67a4.52,4.52,0,0,0,2.21,3.78c7.13,4.26,7.63,11.11,6.62,18.19s-4.81,12.49-11.81,15.11a51.32,51.32,0,0,1-10,2.57c-2.48.39-4.91,1.09-7.58,1.7C320,171,320,171,318.3,174.71c-2.07,4.51-2.17,4.56-6.69,2.26-.33-.17-.53-.45-.81-.1a1.08,1.08,0,0,0,.08,1.48c1.19,1.37,2.9,1.68,4.83,2.07l-14.12,28.35c-.7-3.1-2-5.48-.7-8.24-1.73.81-1.91,1-2,2.7a3.91,3.91,0,0,0,.18,1.87c2.3,4.47.51,8.22-1.67,12.15a174.72,174.72,0,0,0-7.9,15.85c-1,2.42-2.29,2-3.71,1.13-2.52-1.58-4.34-3.77-4.4-7-1.83.43-1.72,1.85-1.38,2.85a8.8,8.8,0,0,0,7.72,6.26c-5.76,6.49-12.37,10.33-20.92,10.08-.58,0-1.41.3-1.7-.43s.41-1.15.85-1.56a16.9,16.9,0,0,0,2.75-2.86c-1.82.67-3.73,1.35-4.66,3s-2,1.41-3.37,1c-7.8-2.53-13.44-7.75-17.93-14.4-.9-1.34-1.71-2.73-3-4.8.31,5,.58,9.3.84,13.56a24,24,0,0,1,.14,2.72c-.22,4.1-1.64,5.16-5.72,4.53-1-.16-1.26-.82-1.57-1.59a16,16,0,0,1-1.65-7.18c-1.8,2.48-.82,4.5-.23,6.35s.63,2.49-1.65,2.52q-34.08.41-68.16,1.06c-2.2,0-2.71-.73-2.53-2.61s.33-4,.5-6c.06-.69.39-1.45-.74-2.06a35.55,35.55,0,0,0-1.32,8.77c-.05,1.51-.4,2-2,2-10.27,0-20.54.06-30.81.13-1.62,0-3,0-1.38-2.29-.52.09-.78.11-1,.18-.86.24-1,2-1.93,1.43a4.5,4.5,0,0,1-2.34-3.15,55.73,55.73,0,0,1-.17-10.07c0-1.16,0-2.32,0-3.53-1.2,0-1.59.92-2.19,1.5A60.45,60.45,0,0,1,98,244.83c-3.19,1.41-3.94,1.06-4.8-2.39a21.94,21.94,0,0,1-.34-2.69c-2.24,1.59-2.14,3.23.45,7a44.21,44.21,0,0,1-25,1.59c-1-.24-1.46-.6-1.28-1.86a46.18,46.18,0,0,0,.25-6c0-.47.27-1.22-.5-1.32s-1,.6-1.09,1.25c-.21,2.25-.84,4.45-.36,6.81-9.74-2.4-17.3-11.53-18.87-21s-4-18.65-6.19-27.93c-.42-1.79-.5-3,1.46-4s3.26-2.79,4.91-5.07L39,192.82c-1-4.27-2-8.45-3-12.63-1.12-4.87-2.09-9.78-3.36-14.61-.56-2.13.07-2.45,2-2.28,2.71.24,5.42.16,7.94-1.61-3-1.23-6-.67-9-.95-1.53-.15-2.21-.56-2.5-2.13-.86-4.74-1.94-9.43-2.85-14.16-.59-3.06-1.64-5.21-5.31-5.87-6.84-1.22-12.79-4.15-16-11a23.21,23.21,0,0,1-.86-17.53c1-3.1,3.81-5,6.57-6.68a4.66,4.66,0,0,0,2.43-4.18C15.8,90.17,16.6,81.11,17,72c.15-3.07,1.62-4.4,4.27-5.05,4.37-1.09,8.69-.28,13,.52A56,56,0,0,1,47.67,72c.25.12.49.33.74.33,4.8,0,3.41,3.23,3.13,5.89-.65,6.14-1.17,12.31-2,18.42a4.4,4.4,0,0,0,2,4.76c3.45,2.52,6.82,5.14,10.2,7.76C64.65,111.47,65,114,62.82,117a23.65,23.65,0,0,1-4.67,5.28c-1.74,1.28-3,6.92-2.29,8.93.18.51.44,1.22,1.07,1,2.53-.93,2.67,1.06,3.17,2.53,1.67,5,3.24,10,4.94,15a5.27,5.27,0,0,1-.37,4.4C63.41,156.64,61.65,159.09,62.49,162.37Z"/><path class="cls-2" d="M101.84,19.95A10.09,10.09,0,0,1,91.75,9.65,9.75,9.75,0,0,1,101.8,0c6.35.08,10.31,3.84,10.3,9.78A10.19,10.19,0,0,1,101.84,19.95Z"/><path class="cls-2" d="M110.57,80.84c-1.42,4.25-.93,8-.16,11.89.91,4.56-1.2,6.41-5.84,5.91a11.48,11.48,0,0,1-3.87-1.2c-4-2-7.67-.46-9.34,3.77a17,17,0,0,0-.82,4.53c-.08.74.06,1.85-1.06,1.91s-1-1-1.1-1.79A11.4,11.4,0,0,1,95,93.37a5.37,5.37,0,0,1,5.44.18,12.75,12.75,0,0,0,4.25,1.74c2,.37,2.7-.49,2.26-2.4A26.12,26.12,0,0,1,105.87,87C105.88,83.33,106.47,82.43,110.57,80.84Z"/><path class="cls-2" d="M20.92,188.88c-2.24,3.35-5,4.33-8.24,3.1S8,188.5,8.44,184.75c.24-2.07.55-4.12.81-6.19.18-1.45-.44-1.89-1.89-1.75a7.62,7.62,0,0,0-5.29,2.4c-.44.49-1,1.34-1.75.6-.59-.57-.23-1.33.13-2,1.51-2.9,7-4.95,10-3.7a3.17,3.17,0,0,1,1.89,3,25.1,25.1,0,0,1-.46,6.21c-.74,4.26.16,5.35,4.41,5.91A9.92,9.92,0,0,0,20.92,188.88Z"/><path class="cls-3" d="M273.7,25.11a1.2,1.2,0,0,1-.31-1.35c.87-1.89,5.16-3.52,8.28-3.14,2.7.33,3.86,2.16,4.29,4.59a22.17,22.17,0,0,1,.17,3c.15,3.94,2.29,5.93,6.26,5.86,2.86-.05,5.36-1.45,8.85-2.38-3.43,2.74-5.47,6.05-9.83,5.84A8.48,8.48,0,0,1,283.12,30c-.05-.45,0-.91-.05-1.36-.14-1.84.71-4.27-1.31-5.23-2.28-1.08-4.81-.47-7,.93C274.39,24.58,274,24.85,273.7,25.11Z"/><path class="cls-3" d="M263.83,71c4.31.05,7.14,2.9,7.11,7.16a7.38,7.38,0,0,1-7.41,7.43,7.26,7.26,0,0,1-7.17-7.35A7.1,7.1,0,0,1,263.83,71Z"/><path class="cls-4" d="M323.38,208.62a6.75,6.75,0,0,1,6.75,7.17,7.66,7.66,0,0,1-7.81,7.39,7.32,7.32,0,0,1-6.94-7.55C315.51,211.46,318.94,208.45,323.38,208.62Z"/><path class="cls-5" d="M150.19,84.43a4.22,4.22,0,0,1-2.77-3.63c-.12-.75-.36-1.53-1.31-1.41s-.91,1-1,1.71a5.92,5.92,0,0,0,3.55,6c2.53,1.15,2.66,3,2.86,5.2-5.16-1.19-9.85-8.81-8.55-13.79a7,7,0,0,1,7.86-4.83c2.35.39,4.52.43,6.46-1.13a1.13,1.13,0,0,1,1.66.05c3.59,2.89,7.29,2.09,11,.21,2.84-1.45,5.18-3.64,7.75-5.51,3.91,7.3,10.58,6.54,14.93,2.35,1.43-1.38,2.39-1.89,4.17-.29a4.86,4.86,0,0,0,6.92.17,1.5,1.5,0,0,1,1.94-.17,3.13,3.13,0,0,0,2.89.3c2-1.21,3.4-.15,4.81.9A43.62,43.62,0,0,0,218,73.31c3.24,1.85,4.3,4.83,3,8.39-1.37,3.82-4.23,6.19-7.9,8.08-.17-2,.27-3.29,2.06-4.16a5.88,5.88,0,0,0,3.2-5.35c0-.7.24-1.62-.7-1.83s-1.17.66-1.33,1.37c-.26,1.12-.36,2.32-1.78,2.82-.51-1.37,0-2.58.09-3.8s0-2.32-1.46-2.49-1.89.92-2,2.06a110,110,0,0,1-2.74,13.9A68.09,68.09,0,0,1,203.72,105c-.38.77-.55,1.78-1.82,1.68-3-.23-4.61,1.81-6,4a24.12,24.12,0,0,1-5.21,5.9c-2.22,1.76-4.4,2.57-7.14.59-2.54-1.83-3.68-1.44-5.2,1.29-1.19,2.15-2.73,1.41-4.18.74-3.14-1.44-5.38-4-7.48-6.62-1.51-1.89-2.92-3.73-5.71-3.57-1.34.08-1.46-1.19-1.86-2-3.8-8.08-5.31-16.76-6.73-25.47-.1-.63-.13-1.27-.26-1.89s-.22-1.63-1.21-1.45c-.73.14-.7,1-.7,1.6C150.19,81.24,150.19,82.68,150.19,84.43Z"/><path class="cls-5" d="M17.5,100.66c.15-2.4.28-4.62.41-6.84q.63-10.06,1.27-20.12c.2-3.26.87-4,4.39-4,7.85-.1,15.18,2.07,22.49,4.76,3.52,1.29,3.42,3.25,3,6-.59,4.22-1,8.47-1.49,12.71-.31,2.92-2,3.93-4.75,2.61-1.71-.83-3.29-1.93-5-2.81s-3.17-.87-4,1.19c-.29.72-.65,1.3-1.58,1.17-5.47-.78-10,1.14-13.73,5C18.42,100.51,18.1,100.5,17.5,100.66Z"/><path class="cls-6" d="M304.49,125.86c.4-3.42-.91-5.93-1.4-8.59-.24-1.31-.19-2.19,1.34-2.27,8.28-.43,16.35-2.32,24.51-3.62,2.26-.36,3.28.33,3.53,2.73.39,3.79,1.1,7.55,1.75,11.3.22,1.29.24,2.12-1.48,1.93-3.22-.35-5.23,1.34-6.82,4a44.1,44.1,0,0,0-4.34,10c-1.55,5.11,1.36,8.7,4.46,12.13,1.07,1.19,2.35,2.2,3.8,3.53a47,47,0,0,1-10.91,1.92,16,16,0,0,0-5.35.84c-1.34.54-1.91.12-2.29-1.27-1.44-5.36-1.16-11-3-16.31-.35-1,.5-1.41,1.22-1.83a31.25,31.25,0,0,0,6.72-5.91c3.45-3.67,3.86-7.84,2.54-12.41-.82-2.85-2-3.41-4.58-2C311.05,121.77,308,123.73,304.49,125.86Z"/><path class="cls-7" d="M20.41,134.37a6,6,0,0,1,3.91-.16c5.13,1.37,10.44,1.2,15.66,1.69,4.3.4,4.74-.19,5.48-4.45.93-5.36,1.82-10.73,2.74-16.09.35-2-.24-3.57-2.24-4.41-3.46-1.46-5.91-4.15-8.33-6.88-1.7-1.92-1.81-4.28-1.69-6.68.07-1.35.74-1.51,1.8-.93a142.15,142.15,0,0,1,22.09,15.32,2.08,2.08,0,0,1,.35,3.13,15.54,15.54,0,0,1-2.53,3.19c-5,4-5.88,9.4-5.4,15.22.19,2.36-.49,3.83-2.61,4.71-1.93.8-3.82,1.68-5.78,2.38s-3.56,1.29-5.86-.73c-2.76-2.42-7-2.85-10.75-3.47A30.77,30.77,0,0,1,20.41,134.37Z"/><path class="cls-6" d="M331.45,161.2c-4.78,1.9-9.62,1.8-13.81,3.84-3,1.45-5.57,1.58-8.1-.78a5.87,5.87,0,0,0-1.92-1c-4.72-1.81-7.59-4.76-7.13-10.29.17-2.1-1.16-3.94-2.6-5.55s-3.06-3.59-4.52-5.44c-1-1.3-.8-2.45.49-3.53,6.53-5.52,13.16-10.88,20.69-15,1.38-.76,1.9-.6,2,1.07a9.34,9.34,0,0,1-2.35,7.29c-1.49,1.59-2.77,3.66-4.73,4.45-5.34,2.13-5.22,6.11-3.93,10.46,1.24,4.18,1.47,8.55,2.85,12.72.87,2.61,2.26,3.68,4.71,3.32,4.93-.72,10-.3,14.83-1.75A4.37,4.37,0,0,1,331.45,161.2Z"/><path class="cls-6" d="M22.64,129.83a65.43,65.43,0,0,0,6.14-6.33c1.58-2,1.76-4.56,3.25-6.54a1.34,1.34,0,0,0,0-1.27c-2.59-3-3.09-7.14-5.33-10.35-1.09-1.56-2-3.27-4-4.29,2.64-2.71,5.79-2.62,8.91-2.57.92,0,1.24.62,1.19,1.47-.1,1.76.68,3.42.11,5.3-.39,1.29-.38,3.54,2.3,2.18.87-.44,1.14.22,1.53.64a25.83,25.83,0,0,0,6.73,5.47c.83.44,1.3,1,1,2-1.7,4.94-1.41,10.24-2.78,15.24-.26,1-.31,2-1.82,1.79C34.3,131.63,28.77,130.78,22.64,129.83Z"/><path class="cls-6" d="M334.83,159.8c.49-2.56-1.07-4.09-2.66-5.57-2.26-2.1-4.65-4.07-6.22-6.81a5.5,5.5,0,0,1-1.08-3.58,28.75,28.75,0,0,1,4.89-12c1-1.44,2.55-1.15,4-.65,5,1.76,8.37,6.63,8.94,11.88C343.55,150.93,340,157.66,334.83,159.8Z"/><path class="cls-6" d="M168.26,123.38c5.18,3.53,10.22,5.51,16.08,4.51a22,22,0,0,0,9.62-4.27c1.4-1.05,2-.94,2.07.9a31.61,31.61,0,0,0,.38,4.89c.66,3.4-1,5.53-3.6,7.26-6.25,4.14-16.5,3.74-22.4-.8a4.77,4.77,0,0,1-2.17-4.37C168.36,129,168.26,126.45,168.26,123.38Z"/><path class="cls-7" d="M8.71,116.75c-1-5.78,3.56-9,8.46-11.92,2.66-1.57,4.31-1,5.94,1.58a37,37,0,0,1,3.91,9c1.24,4.05-1.72,6.42-3.9,9-1.22,1.44-2.85,2.53-4.21,3.87-.7.69-1.65,1.52-1.74,2.37-.35,3.37-1.76,1.9-3.09.8C9.82,127.86,8.35,123.18,8.71,116.75Z"/><path class="cls-8" d="M202,37.11c-.11.89.31,2.37-1.33,2.33s-1-1.41-1-2.33c-.35-4.4-4-6.14-7.74-3.66-.3.2-.57.45-.87.64-.51.31-1.08,1-1.62.24s.07-1.17.46-1.68a7.29,7.29,0,0,1,7.84-2.31C200.12,31.19,202,34.08,202,37.11Z"/><path class="cls-9" d="M157.29,64.74c-3.32,2-6.33.6-6.66-2.9a6.82,6.82,0,0,1,1.93-6,1.12,1.12,0,0,1,1.47-.27c.54.37.13.77,0,1.18C152.33,62,152.33,62,157.29,64.74Z"/><path class="cls-9" d="M57.63,217c-1,4.19-2.85,7.12-6,9.18-.78.51-1.84.76-2.44,0s.39-1.29.87-1.76C52.4,222,54.79,219.75,57.63,217Z"/><path class="cls-10" d="M184.2,214.37c-2.29,4.82-3.64,10.21-7.91,13.84l-.73-.43,7.87-13.9Z"/><path class="cls-11" d="M190.9,162.67c-2.39.48-2.91-1-3.13-2.56-.31-2.23-.46-4.49-.69-6.73-.06-.56-.73-1.28.27-1.55s1.33.49,1.5,1.19a47,47,0,0,1,1.07,5.28A23.94,23.94,0,0,0,190.9,162.67Z"/><path class="cls-12" d="M187.58,234.65c1.18,3.87,2.32,7.65,5.25,10.52-1.66.94-2.19.88-3.31-.34C187.23,242.36,186.11,236.83,187.58,234.65Z"/><path class="cls-13" d="M220.55,166.51c3.55-4.9,9.15-7.39,13.66-11.16l.58.67-13.47,11.24Z"/><path class="cls-14" d="M102.53,183.85a52.39,52.39,0,0,1,.36,14.84C101.09,196.3,101,186.92,102.53,183.85Z"/><path class="cls-15" d="M163.45,206.18c-1.34-3.67.07-7.2.61-10.77,0-.22.54-.48.84-.51.47,0,.51.41.5.76C165.24,199.23,165.27,202.84,163.45,206.18Z"/><path class="cls-10" d="M227.64,199.74c2.52,3.94-.7,9.7-5.77,10.8C223.74,206.89,228.25,204.86,227.64,199.74Z"/><path class="cls-16" d="M241.89,217.78c.86-4.29,1.74-8.56,5-11.78C245.18,209.9,245,214.48,241.89,217.78Z"/><path class="cls-15" d="M257.71,228.71c-2.51-2.12-3.27-8.85-1.64-10.92a1.29,1.29,0,0,1,.88-.46c.61,0,.68.53.57,1C256.75,221.62,257.13,224.94,257.71,228.71Z"/><path class="cls-17" d="M275.81,218.28c2.47-4,5.39-7.49,9.59-9.67C282.27,211.91,279.83,215.89,275.81,218.28Z"/><path class="cls-18" d="M183.09,182.44c2.31.44,6.09,5.31,5.75,7.21a1.17,1.17,0,0,1-.58.79c-.87.31-1.34-.32-1.72-1C185.21,187.27,184.84,184.61,183.09,182.44Z"/><path class="cls-14" d="M252.9,190.52c-.88-2.44,1.47-8.69,3.48-9.57a1.11,1.11,0,0,1,1.46.21c.48.65-.34.59-.56.86-1.38,1.71-2,3.8-2.85,5.77A6.26,6.26,0,0,1,252.9,190.52Z"/><path class="cls-14" d="M207.51,186.8c-3.22-2.82-4.65-9-2.73-12.36C204.54,179,207.15,182.39,207.51,186.8Z"/><path class="cls-19" d="M203.63,210c-2.76,4.63,2.06,7.42,1.57,11.18C201.17,218.52,200,212.41,203.63,210Z"/><path class="cls-14" d="M122.15,201.45a14,14,0,0,1-2,8.18c-.2.38-.52.84-1,.71-.69-.17-.65-.84-.61-1.35C118.72,206.19,120.23,204,122.15,201.45Z"/><path class="cls-15" d="M123.68,171.46c.68,2.85,2.71,4.3,5.18,5.64-2.43,1.55-4.17.79-5.46-1C122.47,174.72,121.51,173.09,123.68,171.46Z"/><path class="cls-20" d="M300.54,171.5c-1.84,3.63,2.19,4,3.07,6.09-2.41.52-5.14-1-5.54-3.12C297.76,172.79,298.51,171.79,300.54,171.5Z"/><path class="cls-21" d="M162.94,157.59a10.4,10.4,0,0,1,6-7.84C167.95,152.6,165.14,156.3,162.94,157.59Z"/><path class="cls-22" d="M105.89,228.41c2.63,1.09,4.09,2.83,5.59,4.51.42.47.87,1.17.42,1.67a1.42,1.42,0,0,1-2-.08A11.89,11.89,0,0,1,105.89,228.41Z"/><path class="cls-23" d="M148.83,228A18.72,18.72,0,0,1,143,238.74C144.53,234.43,146.94,231.36,148.83,228Z"/><path class="cls-24" d="M218.52,242.41c-.5-2.86.48-5,1.42-7.13.22-.49.5-1.1,1.14-.9s.51.87.31,1.36C220.56,237.85,220.7,240.37,218.52,242.41Z"/><path class="cls-18" d="M157.84,56.58a1.94,1.94,0,0,1,1.79,2.19c-.06,1.09-.62,2-1.85,1.9a1.9,1.9,0,0,1-1.91-2.18A1.82,1.82,0,0,1,157.84,56.58Z"/><path class="cls-25" d="M65.91,190.27a30.48,30.48,0,0,1-2.27,8C62.14,195.7,62.76,193.29,65.91,190.27Z"/><path class="cls-13" d="M291.21,193.9c-2.15-1.58-2.49-3.63-2.51-5.8a.69.69,0,0,1,.6-.77.8.8,0,0,1,1,.67C290.6,189.85,291.44,191.6,291.21,193.9Z"/><path class="cls-26" d="M250.2,173.37a22.56,22.56,0,0,1-6.54,6.54C245.09,176.31,247.8,175,250.2,173.37Z"/><path class="cls-27" d="M144.73,213.25c-2.28-1.38-2.81-3.84-4.58-5.22-.31-.24-.42-.6,0-.89a.91.91,0,0,1,1.23.16A9.54,9.54,0,0,1,144.73,213.25Z"/><path class="cls-25" d="M141.2,148.89c-2.17.69-3.79.4-4.64-1.68-.14-.34.1-.84.17-1.26a2.71,2.71,0,0,1,1,.23C138.84,147,140.39,147.25,141.2,148.89Z"/><path class="cls-28" d="M150,170.88a40,40,0,0,0-.31,7.88C147.62,176.39,147.75,173.34,150,170.88Z"/><path class="cls-29" d="M234.24,175.72a12.2,12.2,0,0,1,5.23-5.23A15.22,15.22,0,0,1,234.24,175.72Z"/><path class="cls-30" d="M207.43,39.23A1.46,1.46,0,0,1,209,40.7a1.41,1.41,0,0,1-1.46,1.57A1.3,1.3,0,0,1,206.13,41,1.46,1.46,0,0,1,207.43,39.23Z"/><path class="cls-31" d="M174.45,170.16a1.8,1.8,0,0,1-.83-2.76.67.67,0,0,1,1.13-.09C175.72,168.35,174.9,169.2,174.45,170.16Z"/><path class="cls-32" d="M289.06,179.53a8.17,8.17,0,0,1,3.45,3.32A4.4,4.4,0,0,1,289.06,179.53Z"/><path class="cls-6" d="M109.17,9.69A7.24,7.24,0,0,1,102,17a7.32,7.32,0,0,1-7.55-7.28,7.81,7.81,0,0,1,7.72-7.84C105.51,2,109.15,6,109.17,9.69Z"/><path class="cls-33" d="M264,83a4.86,4.86,0,0,1-4.92-4.73,5,5,0,0,1,4.49-4.91,5.21,5.21,0,0,1,5.05,5A4.65,4.65,0,0,1,264,83Z"/><path class="cls-33" d="M322.87,221.21a5.35,5.35,0,0,1-5.38-5.63,5.43,5.43,0,0,1,5.4-5.37c2.58.11,5.4,3.25,5.35,6A5.23,5.23,0,0,1,322.87,221.21Z"/><path class="cls-34" d="M179,114.88a13.68,13.68,0,0,1-7.81-2c-1-.59-1.85-1.39-1.17-2.66s1.72-1.1,2.81-.53a16.71,16.71,0,0,0,15.94.13c.72-.36,1.6-.9,2.15.09s-.26,1.72-1,2.23C186.59,114.4,182.82,114.82,179,114.88Z"/><path class="cls-35" d="M204.27,83.47c0,1.36-.17,2.24-1.3,2.48s-1.61-.53-2-1.41c-2.31-5.28-4.24-6-9.71-3.6-.89.39-2,1.23-2.68.15s.46-1.95,1.3-2.59c5.21-4,12-2.44,14,3.25A14.24,14.24,0,0,1,204.27,83.47Z"/><path class="cls-36" d="M182.31,106.63a19.53,19.53,0,0,0-9.49,0c-1.15.26-2.26.7-3.41.93a2.12,2.12,0,0,1-2.7-1.27,1.92,1.92,0,0,1,1.43-2.55c4.59-1.49,9.23-3.69,13.79.21.26.23,1-.07,1.48-.12A2.83,2.83,0,0,1,182.31,106.63Z"/><path class="cls-35" d="M182.31,106.63c-.17-1.16.62-1.94,1.11-2.84,3.7-1.16,7.49-.72,11.25-.65a1.81,1.81,0,0,1,1.93,1.59,2.11,2.11,0,0,1-1.53,2.3,7.76,7.76,0,0,1-2.38.45c-2.8.11-5.6.15-8.41.19C183.46,107.68,182.63,107.61,182.31,106.63Z"/><path class="cls-37" d="M171,76a10.47,10.47,0,0,1,6.39,2.46c.76.66,1.56,1.47.7,2.53s-1.58.35-2.37-.16c-4.75-3.06-9.43-2.14-12.7,2.45-.44.62-.71,1.75-1.73,1.28s-.58-1.55-.31-2.39C162,78.75,166.27,76.06,171,76Z"/><path class="cls-37" d="M182.38,98.73c2-.19,4.28-.53,5.63-2.88.57-1,1.23-1.72,2.35-1a2,2,0,0,1,.39,2.93c-1.49,2.44-3.95,3.39-6.61,3.83a6.87,6.87,0,0,1-2.69-.14c-1-.24-2-.76-1.86-2C179.78,98,181,98.55,182.38,98.73Z"/><path class="cls-36" d="M174.82,87.44c0,1.53-.58,2.69-2.14,2.67-1.74,0-2.49-1.35-2.62-2.9s.54-2.54,2.12-2.52C174,84.7,174.59,86,174.82,87.44Z"/><path class="cls-38" d="M195,86.22c-.26,1.55-.88,2.89-2.64,2.83s-2.28-1.36-2.17-2.84,1-2.78,2.75-2.64C194.47,83.7,195,84.8,195,86.22Z"/><path class="cls-39" d="M36.52,117.39c1.15.2,1.36,1,1.32,2s-.32,1.73-1.35,1.62-1.61-1-1.53-2.16A1.41,1.41,0,0,1,36.52,117.39Z"/><path class="cls-40" d="M37.46,126.88c0-.72.28-1.27,1.09-1.18s.9.73.91,1.37-.07,1.17-.73,1.19C37.85,128.29,37.59,127.6,37.46,126.88Z"/><path class="cls-6" d="M9.42,117.53a13.09,13.09,0,0,1,8.86-12.38c1.2-.42,2.38-.43,3.2.7a26.62,26.62,0,0,1,4.77,10c.86,4-2.11,6.4-4.63,8.65-1.9,1.7-3.88,3.25-5.25,5.43-.86,1.38-1.46,1.36-2.63.1C10.43,126.45,9.44,122.18,9.42,117.53Z"/></g></g></svg>