<svg xmlns="http://www.w3.org/2000/svg" width="226" height="194" viewBox="0 0 226 194">
    <g fill="none" fill-rule="evenodd">
        <path fill="#BAE1F7" d="M121.517 186c47.184 0 41.243-17.32 41.243-65.811C162.76 71.697 134.233 21 87.05 21c-47.185 0-5.26 34.61-68.847 79.312C-45.382 145.015 74.333 186 121.517 186z"/>
        <g fill-rule="nonzero">
            <path fill="#000" d="M93.03 91.366c-4.435-3.227-8.576-6.841-12.372-10.8-2.622-2.796-5.4-5.478-7.08-9-.396-.846-1.068-.6-1.674-.486-4.866.666-4.866.672-7.2-3.672-.539-1.034-1.311-1.927-2.256-2.61-4.578-3.312-6.378-8.07-6.63-13.518-.042-.948 0-1.998.906-2.67.672-.504.306-1.02.096-1.554-.528-1.332-1.074-2.652-1.566-3.996-.408-1.122-.078-1.866 1.164-2.184 3.21-.828 6.402-1.752 9.6-2.55 1.08-.27 2.226 0 2.622 1.164 1.8 5.25 5.274 9.528 8.124 14.166 1.356 2.208 1.2 4.908 2.226 7.236.528 1.164.666 2.538 2.532 2.274.768-.108 1.032.894 1.65 1.26 4.608 2.7 9.192 5.448 13.8 8.172.21.09.43.161.654.21 1.07-4.29 2.438-8.5 4.092-12.6 1.116-2.694 2.232-5.4 3.462-8.04.979-2.24 2.84-3.977 5.142-4.8.556-.188 1.079-.463 1.548-.816.84-.672 1.068-1.668.174-2.304-5.328-3.798-6.18-9.48-6.702-15.36-.186-2.124-.6-4.2.39-6.276.6-1.254-.084-1.35-1.158-1.302-3.03.138-3.324-.132-2.91-3.162.774-5.628 3.186-10.452 7.59-14.124 9.384-7.8 21.816-3.816 25.272 8.118.558 2.144.856 4.348.888 6.564.048 1.134-.45 1.842-1.5 1.866-1.146 0-1.344.492-1.428 1.524-.481 5.589-2.354 10.968-5.448 15.648-1.344 2.1-.33 5.544 1.842 6.648 3.525 1.694 6.871 3.736 9.99 6.096 6.834 5.4 10.014 12.786 11.04 21.258.192 1.59 0 3.6.894 4.626.894 1.026 3 .276 4.518.186 5.268-.294 10.326 1.302 15.522 1.59 4.728.264 9.192 1.752 13.722 2.928 3.6.93 3.816 1.308 3.186 4.908-.948 5.454-1.986 10.89-3.054 16.326-1.692 8.628-3.456 17.244-5.148 25.872-.636 3.228-.6 3.126-3.978 2.82-3.498-.318-7.02-.372-10.53-.6-1.446-.09-1.914.336-1.998 1.944-.468 8.928-1.65 17.688-7.566 24.984-1.644 2.028-3.036 4.2-4.512 6.378-3.654 5.322-5.112 11.352-5.82 17.61-.27 2.4-.162 4.8-.342 7.2-.126 1.692.27 2.448 2.208 2.364 4.944-.21 9.9-.198 14.85-.27.52-.017 1.042.001 1.56.054.412.016.734.362.72.774.008.198-.063.392-.199.537-.135.145-.323.23-.521.237-.518.053-1.04.075-1.56.066-11.526.114-23.058.186-34.59.342-7.488.102-15 .24-22.452.528-8.658.342-17.31-.486-25.956-.102-9.804.438-19.608.408-29.4.24-5.922-.102-11.838-.414-17.76-.642-.558 0-1.374.114-1.392-.678 0-.912.846-.828 1.482-.822 2.736.036 5.472.102 8.208.138.6 0 1.374.186 1.596-.708 1.122-4.566 4.974-6.474 8.496-8.658 2.1-1.302 4.326-2.4 6.528-3.522.587-.259.952-.854.918-1.494 1.116-12.588 2.252-25.174 3.408-37.758.054-.6-.054-1.2 0-1.752.144-1.236-.174-1.734-1.596-1.944-2.598-.384-3.444-2.586-3.858-4.842-.876-4.728.144-9.192 2.214-13.452.888-1.836 2.496-3.192 3.552-4.842 3.3-5.184 9.06-6.798 13.722-9.948 5.76-3.864 11.874-7.254 18.048-10.998z" transform="translate(21)"/>
            <path fill="#0A0A0A" d="M201.57 173.47c-2.616 3.81-5.88 5.034-9.846 3.834-2.046-.6-2.652-1.476-2.4-3.6.12-1.098.408-2.178.51-3.282.15-1.596-.564-2.55-2.196-2.91-3-.66-5.676-.264-8.124 1.644-.39.306-.942 1.05-1.446.33-.354-.504.36-.876.714-1.2 2.958-2.898 6.516-2.958 10.2-2.022 1.608.408 2.43 1.692 2.58 3.33.009.715-.024 1.43-.096 2.142 0 1.17-1.092 2.616.21 3.426 1.423.863 3.169 1.01 4.716.396.852-.318 1.692-.678 2.538-1.014l2.64-1.074z" transform="translate(21)"/>
            <path fill="#0F0F0F" d="M42.048 138.922c.014 2.343-.662 4.638-1.944 6.6-1.59 2.58-2.952 3.12-5.886 2.25-.81-.24-1.596-.552-2.4-.81-5.526-1.758-8.334.504-9.984 6.366-.162.6.162 1.578-.732 1.5-.894-.078-.75-1.158-.6-1.764 1.074-5.25 4.098-9.408 10.362-8.13 1.265.293 2.512.664 3.732 1.11 1.8.6 3.096.21 4.002-1.602.87-2 2.033-3.861 3.45-5.52z" transform="translate(21)"/>
            <path fill="#181818" d="M38.838 81.91c3.6.072 5.778 2.28 5.706 5.73-.14 3.148-2.771 5.607-5.922 5.532-3.05-.139-5.434-2.681-5.377-5.733.057-3.053 2.534-5.504 5.587-5.53h.006z" transform="translate(21)"/>
            <path fill="#090909" d="M199.71 143.698c-1.283.056-2.534-.418-3.457-1.311-.924-.893-1.44-2.127-1.427-3.411-.029-1.283.457-2.523 1.348-3.445.892-.922 2.115-1.45 3.398-1.463 2.916 0 4.92 1.848 4.956 4.602.063 1.315-.418 2.598-1.329 3.549-.91.95-2.172 1.485-3.489 1.479z" transform="translate(21)"/>
            <path fill="#0F0F0F" d="M4.2 126.214c-2.8 0-4.2-1.314-4.2-3.942 0-3.432 1.8-5.82 4.416-5.808 2.616.012 5.01 2.694 4.956 5.502-.03 2.7-1.932 4.254-5.172 4.248z" transform="translate(21)"/>
            <path fill="#090909" d="M156.72 58.876c.072-3.096 1.464-4.848 4.578-6.06.87-.342 2.46-.12 2.4-1.506-.06-1.386-1.254-2.352-2.652-2.802l-.186-.06c-.822-.258-2.208-.18-1.92-1.404.324-1.368 1.596-.6 2.472-.444 1.684.374 3.092 1.522 3.798 3.096 1.086 2.094.474 3.684-1.8 4.356-2.532.756-4.92 1.572-5.064 4.8-.036.792-.096 1.596.894 1.914.294.096.696.132.546.6-.114.348-.444.444-.774.486-1.338.192-2.334-1.122-2.292-2.976z" transform="translate(21)"/>
            <path fill="#FEFEFE" d="M106.002 78.328c-.468-7.068-1.356-14.148-.114-21.21.546-3.102 1.866-5.844 4.95-7.302.6-.276 1.026-.63 1.518.336 1.422 2.784 3 3.396 6.036 2.712 2.946-.683 5.557-2.382 7.374-4.8 1.632-2.058 1.638-2.142 3.918-.696 3.348 2.124 6.894 3.996 9.75 6.81 4.118 3.945 6.829 9.132 7.716 14.766 1.62 9.78-.078 19.476-.228 29.208-.048 3.192-.342 6.372-.444 9.564-.042 1.278-.486 1.416-1.68 1.2-8.616-1.686-17.202-3.798-26.094-3.102-5.826.456-11.712.804-16.854 4.11-7.236 4.656-11.91 11.034-12.816 19.758-.3 2.886.954 5.592 1.8 8.316.618 1.746 1.107 3.534 1.464 5.352-3.258-3.342-5.436-6.864-7.626-10.638-.825 1.252-.825 2.876 0 4.128 2.092 3.537 4.647 6.78 7.596 9.642.904.847 1.546 1.936 1.848 3.138 2.4 9.132 4.8 18.264 7.284 27.378.234.666-.013 1.407-.6 1.8-2.118 2.028-4.2 4.086-6.306 6.132-1.677 1.58-2.783 3.67-3.144 5.946-.156 1.008-.444 1.284-1.44 1.254-5.6-.18-11.2-.314-16.8-.402-1.236 0-1.8-.324-1.662-1.668.075-1.106.03-2.216-.132-3.312-.672-5.19 1.248-9.948 2.4-14.844 3.18-13.896 6.846-27.69 9.12-41.784.224-1.152.52-2.288.888-3.402.126-.432.384-.894.942-.834.678.078.792.648.732 1.2-.126 1.164-.294 2.328-.528 3.474-.15.738 0 1.14.804 1.128.6 0 1.38.294 1.434-.768.516-11.19 7.008-18.492 15.87-24.462-1.525-.417-3.111-.56-4.686-.42-9.384.312-18.114 2.814-25.89 8.184-6.234 4.302-9.6 10.452-11.052 17.778-.144.726.078 1.722-.942 1.938-1.02.216-1.842-.468-2.4-1.32-.498-.769-.806-1.645-.9-2.556-.714-5.598.9-10.554 4.2-15.042.261-.47.69-.826 1.2-.996.6 1.5 1.104 3 1.728 4.482.408.96.894 1.038 1.686.162 9.504-10.506 21.69-14.31 35.466-13.998 1.36.11 2.708.344 4.026.696 1.248.258 1.8-.096 1.8-1.47 0-1.374-.696-3.186.354-3.822 1.05-.636 2.496.666 3.774 1.098 4.488 1.512 9 2.658 13.8 1.674 3.6-.744 6.378-2.478 7.272-6.426.234-1.038 1.05-1.938 1.56-2.916 2.992-5.712 5.978-11.426 8.958-17.142.12-.228.246-.462.342-.702.204-.504.366-1.056-.21-1.386-.666-.378-1.092.084-1.434.6-.108.162-.198.336-.294.504-3.504 6.174-7.128 12.294-10.2 18.702-2.718 5.712-5.796 7.236-12.684 6.402-6.144-.744-11.61-3.372-16.866-6.438-9.624-5.682-18.158-13.035-25.2-21.714-.6-.696-.6-1.2-.102-1.866.36-.462.654-.972 1.002-1.446 2.754-3.69 3.318-3.708 7.104-1.338 11.094 6.948 22.242 13.8 33.378 20.712.78.486 1.698 1.086 2.4.066s-.126-1.746-.954-2.142c-1.35-.642-.894-1.422-.42-2.358 3.2-6.344 6.366-12.698 9.498-19.062.625-1.36 1.182-2.75 1.668-4.164.174-.474.366-1.098-.21-1.404-.678-.36-1.092.204-1.41.69-.584.862-1.121 1.755-1.608 2.676-3.354 6.6-6.72 13.242-9.978 19.914-.648 1.332-1.14 1.638-2.4.75-1.26-.888-2.58-1.488-3.882-2.214-.974-.35-1.843-.94-2.526-1.716.744-.912 1.668-.6 2.544-.516.774.102 1.542.234 2.31.354 1.416.222 2.034-.468 2.178-1.8.324-3 .168-6 .6-8.934.162-.878-.375-1.733-1.236-1.968-1.348-.472-2.798-.578-4.2-.306-1.068.18-1.2 1.05-1.386 1.884-.48 2.425-.682 4.897-.6 7.368.048.714.03 1.431-.054 2.142-.3 1.41-.636 1.53-2.1.678z" transform="translate(21)"/>
            <path fill="#FEFEFE" d="M135.894 191.056c-1.8 0-3.654-.096-5.466.03-1.314.09-1.65-.432-1.8-1.632-.72-6.666-1.524-13.32-2.274-19.98-.417-3.43-1.018-6.835-1.8-10.2-.276-1.248-.048-1.704 1.254-1.944 12.132-2.244 21.312-8.946 28.29-18.918.23-.313.43-.647.6-.996.14-.226.183-.5.118-.758-.066-.259-.234-.479-.466-.61-.4-.27-.938-.195-1.248.174-.433.485-.834.998-1.2 1.536-6.072 8.4-13.848 14.4-24.054 16.968-3.871.927-7.87 1.202-11.832.816-1.2-.102-1.656-.546-1.836-1.728-.984-6.568-2.016-13.126-3.096-19.674-.528-3.204-1.284-6.372-1.584-9.6-.106-.641-.17-1.289-.192-1.938 0-.702-.45-1.8.642-1.932.9-.114.936.96 1.068 1.608.492 2.024.85 4.079 1.074 6.15.12 1.668.786 1.992 2.31 1.926 15.294-.6 30.6.156 45.882.138.726 0 1.8-.252 1.578 1.044-1.32 7.59-1.548 15.474-6.162 22.2-2.07 3-4.302 5.88-6.318 8.922-3.672 5.538-5.28 11.706-6 18.162-.267 2.854-.375 5.72-.324 8.586 0 1.2-.402 1.596-1.566 1.554-1.884-.066-3.774 0-5.664 0l.066.096z" transform="translate(21)"/>
            <path fill="#FEFEFE" d="M166.566 117.898c-.384 3.222-.786 6.438-1.134 9.66-.084.792-.138 1.308-1.2 1.278-8.4-.246-16.752-.432-25.134-.648-.416-.05-.829-.124-1.236-.222 2.574-1.332 4.71-2.604 6.498-4.434 2.94-3 4.068-6.816 4.998-10.74 1.974-3.312 4.692-6.042 7.128-9 3.642-4.404 7.2-8.856 10.938-13.2.267-.368.575-.704.918-1.002.264-.192.6-.402.888-.246.288.156.3.564.258.876-.378 2.946-.558 5.91-.9 8.856-.366 3.132-.648 6.276-1.014 9.408-.366 3.132-.534 6.294-1.008 9.414z" transform="translate(21)"/>
            <path fill="#FEFEFE" d="M148.608 110.032c-.414-4.356.27-8.676.426-13.014.216-6.162.804-12.306.786-18.48.134-.31.457-.494.792-.45 5.088.36 10.26-.324 15.252 1.2.64.13 1.296.156 1.944.078.678 0 1.422.03 1.8.6.426.678-.27 1.2-.654 1.68-1.746 2.274-3.816 4.272-5.682 6.438-2.4 2.76-4.752 5.526-7.29 8.148-.356.332-.547.804-.522 1.29 2.25-2.4 4.11-4.692 6.048-6.936 2.4-2.754 4.758-5.526 7.2-8.244.336-.378.702-.978 1.242-.774.69.264.504 1.146.318 1.524-.72 1.482.282 3.306-1.008 4.632-1.2 2.4-3.222 4.2-4.92 6.222-4.464 5.304-8.914 10.622-13.35 15.954-.187.26-.387.51-.6.75-1.05.99-1.326.894-1.782-.618z" transform="translate(21)"/>
            <path fill="#FDFDFD" d="M130.158 26.716c-1.033 4.16-2.9 8.067-5.49 11.484-1.197 1.545-2.626 2.895-4.236 4.002-3.672 2.562-7.662 1.968-10.236-1.722-3.09-4.428-3.6-9.54-3.456-14.748 0-1.026 1.536-1.584 2.586-1.038.45.234.846.6 1.314.798.38.164.82-.007.99-.384.14-.307.05-.67-.216-.876-.924-.99-1.956-1.704-3.432-1.368-.504.114-1.2.498-1.2-.6 0-.642-.126-1.164.96-1.2 1.998-.06 3.984-.516 6-.648 1.032-.066 1.242-.522 1.092-1.356-.24-1.314-.402-3.33.708-3.456 1.428-.156 1.392 1.902 1.524 3.108.156 1.398.786 1.698 2.04 1.614 1.254-.084 2.598 0 3.9.066.942 0 2.154-.204 1.38 1.47-.053.236.02.484.192.654.462.222.696-.186.9-.504.684-1.104 1.278-2.25 2.4-3 1.962-1.314 2.76-1.002 3.054 1.338.046.713.046 1.429 0 2.142-.384 1.374-.39 2.838-.774 4.224zM56.556 191.134c-3.84 0-7.68-.066-11.52 0-1.746.042-1.698-.6-.978-1.8 1.548-2.472 4.05-3.822 6.414-5.292 2.76-1.716 5.646-3.234 8.43-4.908.894-.524 1.937-.735 2.964-.6 2.136.174 4.29.27 6.432.276 1.134 0 1.458.39 1.356 1.494-.294 3.179-.294 6.379 0 9.558.138 1.428-.432 1.746-1.764 1.716-3.774-.078-7.548 0-11.328 0-.004-.156-.006-.304-.006-.444zM73.674 51.706c1.29 1.656 2.088 3.156 2.292 4.8.3 2.384.99 4.703 2.04 6.864.264.552.39.996-.186 1.332-1.674.978-1.974 3.318-3.966 3.978-3.756-2.568-8.514-3.342-11.868-6.6-2.838-2.772-4.05-6.294-4.518-10.128-.174-1.428.294-1.962 1.752-1.254 2.808 1.356 5.652 2.652 8.478 3.972.234.108.45.264.684.372 3.516 1.614 4.866.876 5.292-3.336zM103.878 191.704c-3.054 0-6.12-.108-9.168.042-1.8.09-1.8-.558-1.278-1.89.405-1.17 1.04-2.247 1.866-3.168 2.6-2.644 5.2-5.292 7.8-7.944.45-.475 1.087-.726 1.74-.684 2.992.024 5.992.024 9 0 .81 0 1.398.036 1.26 1.128-.426 3.444.132 6.882.096 10.326 0 1.5-.486 1.878-1.902 1.836-3.12-.096-6.246 0-9.366 0l-.048.354z" transform="translate(21)"/>
            <path fill="#FCFCFC" d="M117.984 180.388l-.306.414c-.378.558-.846.732-.9-.108-.066-.984-.264-2.004.156-3 .518-1.064.654-2.274.384-3.426-.732-4.956-1.422-9.918-2.214-14.868-.228-1.41.054-1.854 1.548-1.662 1.557.12 3.119.16 4.68.12.36 0 .828-.222 1.038.24.21.462-.15.732-.384 1.032-.678.876-1.416 1.71-2.052 2.61-.306.432-.912 1.038-.3 1.506.45.348.942-.234 1.29-.6.6-.66 1.152-1.344 1.752-2.052.786.822.372 1.878.852 2.652.63 2.666.978 5.39 1.038 8.13.056.918-.212 1.826-.756 2.568-1.86 2.22-3.432 4.704-5.826 6.444z" transform="translate(21)"/>
            <path fill="#0D0D0D" d="M106.002 78.328c1.338.84 1.674.324 1.596-1.074-.147-3.181.022-6.369.504-9.516.21-1.476.804-2.238 2.322-2.232.774 0 1.566-.138 2.328-.06 3.054.312 3.552 1.038 3.264 4.062-.24 2.52-.324 5.052-.462 7.578-.144 2.646-.6 3.03-3.21 2.604-1.344-.222-2.694-.372-4.152-.57.498 1.086 1.68 1.152 2.22 1.962-1.86-.294-3.198-1.428-4.41-2.754z" transform="translate(21)"/>
            <path fill="#F6F6F6" d="M125.31 40.408c.924 4.962-4.29 10.638-9.198 10.314-1.04.034-1.919-.762-1.986-1.8-.126-1.008 0-2.046-.228-3.066-.138-.552.276-.822.834-.75 4.2.522 7.248-1.494 9.948-4.356.196-.138.407-.253.63-.342z" transform="translate(21)"/>
            <path fill="#1D1D1D" d="M148.608 110.032c.6 1.356 1.05.744 1.692 0 5.884-7.04 11.79-14.064 17.718-21.072.372-.438.816-.81 1.23-1.2 1.158 2.628.108 5.28-.06 7.89-.306 4.71-.852 9.414-1.482 14.094-.366 2.73 0 5.568-1.14 8.19.096-5.022.918-9.972 1.374-14.958.402-4.404.9-8.802 1.356-13.248-.882.048-1.086.762-1.47 1.2-5.708 6.864-11.408 13.734-17.1 20.61-.396.474-.636 1.152-1.374 1.278-.384-.9-1.122-1.692-.744-2.784z" transform="translate(21)"/>
            <path fill="#373737" d="M117.984 180.388c1.542-2.4 3.57-4.44 5.4-6.6.849-.907 1.214-2.164.984-3.384-.372-2.364-.6-4.752-.87-7.128 1.056 1.656 1.062 3.636 1.086 5.4.007 2.852.276 5.698.804 8.502.654 3.234.468 6.534 1.296 9.708.15.43.238.878.264 1.332-.036 1.05.744 2.586-.354 3.042-1.32.552-3.132 1.2-4.416 0-.894-.846-1.2.6-1.83.096.516-2.034 2.4-2.934 3.666-4.35.852-.966 1.572-1.884 1.416-3.27-2.544 2.316-4.416 5.25-6.894 7.626-1.908-.6-2.13-1.158-1.17-3.042.306.378.51.954 1.11.216 1.866-2.304 3.822-4.53 5.88-6.66.545-.577.77-1.385.6-2.16-.948.246-.942 1.8-2.214 1.458-.42-1.23-.846.468-1.272 0-.324-.948.492-1.368.912-1.98.774-1.134 2.088-1.986 1.962-3.84-1.415 1.45-2.757 2.97-4.02 4.554-.384.438-.6 1.2-1.488.894.006-.762-.54-.336-.852-.414z" transform="translate(21)"/>
            <path fill="#232323" d="M169.23 87.736c.66-1.854.6-3.816.942-5.898-.876.282-1.2.924-1.644 1.422-3.876 4.476-7.744 8.96-11.604 13.452-.252.294-.504.6-.78.87-.402.39-.828 1.092-1.434.6-.732-.6-.036-1.2.366-1.632 4.5-5.056 9.008-10.102 13.524-15.138.342-.378.696-.744 1.23-1.314-6.786-1.2-13.32-2.316-20.01-1.548.084-.798.6-.828 1.266-.81 5.825.116 11.637.605 17.4 1.464 1.5.24 2.4.87 2.112 2.592-.246 1.596-.318 3.216-.474 4.8-.078.564-.27 1.02-.894 1.14z" transform="translate(21)"/>
            <path fill="#F3F3F3" d="M122.76 181.144c1.11-.462 1.278-1.884 2.484-2.448.474 1.488.6 2.688-.732 3.87-2.484 2.25-4.596 4.872-6.834 7.494-.558-.66-.15-1.254-.3-1.764.978-2.952 3.558-4.752 5.382-7.152zM118.854 180.784l5.658-6.474c.695 1.112.53 2.557-.396 3.486-.93 1.074-1.752 2.232-2.622 3.36-1.698 1.14-2.454 3.234-4.374 4.416-.708-2.202.9-3.354 1.734-4.788z" transform="translate(21)"/>
            <path fill="#F1F1F1" d="M118.548 191.344c1.8-3.246 4.506-5.694 7.074-8.532.6 1.8.3 3-.888 4.08-1.524 1.41-2.916 2.958-4.368 4.446l-1.818.006z" transform="translate(21)"/>
            <path fill="#373737" d="M116.928 177.718c0 .894.06 1.8.054 2.682 0 .6.234.654.69.402.102.528-.072.948-.6.966-.348 0-.516-.408-.492-.72.078-1.104-.51-2.304.348-3.33z" transform="translate(21)"/>
            <path fill="#FBFBFB" d="M43.074 87.694c-.024 1.115-.49 2.175-1.296 2.946-.806.77-1.885 1.19-3 1.164-1.15-.05-2.231-.558-3.003-1.412-.771-.854-1.168-1.981-1.101-3.13.126-2.256 2.046-4.146 4.152-4.08 2.36.201 4.19 2.145 4.248 4.512zM199.596 141.862c-.85-.033-1.652-.404-2.228-1.03-.575-.626-.877-1.456-.838-2.306.078-1.71 1.51-3.044 3.222-3 1.47.048 3.108 1.95 3 3.498-.142 1.629-1.521 2.87-3.156 2.838z" transform="translate(21)"/>
            <path fill="#F7F7F7" d="M1.572 121.744c.048-1.998 1.398-3.486 3.072-3.396 1.434.078 3 1.932 3 3.57s-1.302 2.694-3.552 2.646c-1.914-.036-2.568-.768-2.52-2.82z" transform="translate(21)"/>
            <path fill="#FEFEFE" d="M145.608 74.248c-.87-.6-1.158-1.884-2.4-2.094-1.98-.336-3.252.84-3.906 2.292-2.448 5.4-6.042 10.146-8.4 15.6-.972 2.197-2.192 4.277-3.636 6.198-1.926 2.61-4.8 2.808-7.764 2.4-10.674-1.5-19.26-7.242-27.498-13.65-3.604-2.879-6.997-6.013-10.152-9.378-.99-1.026-1.866-2.154-2.832-3.204-.834-.906-.762-1.758.114-2.532s1.494-2.304 3-1.2c3.042 2.238 6.426 3.918 9.6 5.952 4.53 2.904 9 5.88 13.698 8.538 3.9 2.22 7.572 4.8 11.4 7.092 1.256.862 2.901.904 4.2.108 1.26-.732 1.446-1.914 1.284-3.216-.036-.312-.066-.762-.264-.9-1.95-1.35-.912-2.748-.174-4.2 3.306-6.6 6.858-13.092 9.6-19.968 1.05-2.64.39-4.692-1.746-4.944-1.914-.222-2.826 1.158-3.732 2.574-2.85 4.44-4.734 9.39-7.344 13.95-.186.33-.396.642-.726 1.2-.756-2.016.06-3.756.186-5.466.282-3.774-1.362-5.76-5.25-5.814-.978 0-1.956-.066-2.928 0s-1.764.312-2.724.492c-.6-3.828.432-7.26 2.16-10.548.684-1.302 1.308-1.71 2.538-.294 1.8 2.112 4.404 2.034 6.876 1.494 3.246-.605 6.158-2.38 8.184-4.986.822-1.068 1.542-.978 2.58-.258 3.246 2.256 6.666 4.254 9.51 7.05 2.68 2.742 4.59 6.142 5.538 9.858.33 1.158 2.16 1.758 1.386 2.934-.774 1.176-.204 2.226-.156 3.33.146.538.066 1.112-.222 1.59zM128.298 104.236c2.61-2.142 5.124-3.93 6.144-7.404.804-2.736 2.742-5.13 4.086-7.722 2.286-4.416 4.362-8.94 7.044-13.47.297.886.499 1.8.6 2.73-.042 2.268-.438 4.53.834 6.66.27.612.177 1.324-.24 1.848-1.686 2.262-1.638 3.786-.396 6.198.528 1.026.96 2.484-.546 3.372-.496.218-.783.742-.702 1.278.402 2.4-.768 4.656-.42 7.032.246 1.674-.516 1.71-2.058 1.632-4.908-.246-9.426-2.646-14.346-2.154zM59.55 130.06c-1.356-1.698-.804-3.246-.468-4.722.378-2.1 1.003-4.148 1.86-6.102.216-.432.558-1.2 1.05-.402.6.954 1.548 1.83.666 3.288-1.434 2.37-2.256 5.022-3.108 7.938zM114.858 104.86c-2.058-.234-3.6-.408-5.184.072-.798.246-1.962.072-1.98-.936 0-.786 1.002-1.374 1.878-1.308 1.953.12 3.812.884 5.286 2.172zM128.256 104.164c-.552 1.8-1.956 1.08-3.444 1.248 1.194-1.014 2.376-.948 3.444-1.248z" transform="translate(21)"/>
            <path fill="#1C1C1C" d="M113.262 39.73c-.36.007-.719-.018-1.074-.072-.6-.156-1.482-.168-1.41-1.02.072-.852.888-.6 1.434-.6 2.173.07 4.27-.806 5.748-2.4.39-.42.852-.996 1.446-.378s.06 1.104-.312 1.542c-1.437 1.764-3.56 2.83-5.832 2.928z" transform="translate(21)"/>
            <path fill="#131313" d="M112.62 35.944c-1.698-.036-2.778-.672-3.108-2.256-.157-.452.023-.952.432-1.2.522-.294.786.06 1.104.426 1.296 1.482 1.842 1.416 2.964-.324.348-.54.6-1.32 1.416-.912.816.408.6 1.2.282 1.878-.491 1.32-1.69 2.245-3.09 2.388z" transform="translate(21)"/>
            <path fill="#151515" d="M122.382 26.584c0 .474 0 .858-.462 1.032-.372.157-.803.022-1.02-.318-.354-.462-.6-.996-1.002-1.422-.999-1.163-2.607-1.599-4.056-1.098-.402.114-.972.84-1.284 0-.312-.84.372-1.152.978-1.428 1.92-.772 4.115-.296 5.544 1.2.62.539 1.072 1.245 1.302 2.034z" transform="translate(21)"/>
            <path fill="#101010" d="M129.81 24.262c-.432 1.2-.384 2.562-1.854 3-.369.17-.806.069-1.062-.246-.252-.366-.084-.702.27-.984 1.32-1.062 1.8-2.16.09-3.324-.101-.085-.163-.208-.17-.34-.009-.13.038-.26.128-.356.243-.32.664-.449 1.044-.318 1.446.324 1.068 1.716 1.554 2.568z" transform="translate(21)"/>
            <path fill="#000" d="M116.988 27.148c-.204.714-.402 1.572-1.386 1.56-.702 0-.96-.654-.888-1.284.09-.75.456-1.416 1.302-1.482.744-.054.984.48.972 1.206z" transform="translate(21)"/>
            <path fill="#2F2F2F" d="M110.178 27.646c-.09.774-.372 1.248-1.11 1.14-.686-.03-1.22-.604-1.2-1.29-.036-.328.087-.654.332-.875.245-.22.581-.31.904-.241.816.084 1.002.708 1.074 1.266z" transform="translate(21)"/>
            <path fill="#000" d="M121.656 34.804c0 .444-.138 1.014-.558.882-.851-.282-1.519-.95-1.8-1.8-.126-.36.462-.564.864-.522.8.008 1.456.64 1.494 1.44z" transform="translate(21)"/>
            <path fill="#242424" d="M63.132 182.986c.858-.028 1.69.298 2.3.901.611.604.947 1.432.928 2.29-.078 1.85-1.624 3.294-3.474 3.247-.86.005-1.684-.348-2.273-.976-.589-.627-.89-1.472-.829-2.33.062-1.789 1.56-3.19 3.348-3.132z" transform="translate(21)"/>
            <path fill="#171717" d="M113.148 185.344c-.01.818-.348 1.597-.94 2.162s-1.386.867-2.204.838c-.783.007-1.533-.313-2.07-.882-.538-.57-.814-1.337-.762-2.118.036-1.623 1.377-2.91 3-2.88.782-.033 1.544.256 2.106.8.563.545.877 1.297.87 2.08z" transform="translate(21)"/>
            <path fill="#FEFEFE" d="M111.492 71.296c.774.51 2.514-.42 2.67 1.512.054.642-.078 1.236-.978.744-.824-.388-1.764-.455-2.634-.186-.462.096-1.062.936-1.416 0-.162-.656.142-1.338.738-1.656.473-.328 1.048-.475 1.62-.414zM114.294 70.096c-.066.762-.408.93-.948.762-1.152-.44-2.416-.493-3.6-.15-.456.15-.6-.246-.462-.6.302-1.044 1.323-1.71 2.4-1.566 1.047.137 1.99.7 2.61 1.554zM108.882 77.536c1.74-1.434 3.042-1.698 4.422-.504.234.204.552.402.426.786-.126.384-.504.39-.804.348-1.2-.162-2.394-.366-4.044-.63z" transform="translate(21)"/>
            <path fill="#FEFEFE" d="M109.206 75.646c1.884-2.106 3.474-2.004 4.692.228-1.548-.93-3.114-.606-4.692-.228zM109.602 67.618c1.336-.749 2.942-.842 4.356-.252.39.156.732.408.546.858-.186.45-.672.39-.954.12-1.14-1.116-2.466-1.152-3.948-.726z" transform="translate(21)"/>
            <path fill="#ECECEC" d="M126.12 186.622c.972 5.352.984 4.512-3.6 4.374l3.6-4.374zM64.968 186.268c-.144 1.2-.834 1.854-1.95 1.8-.534.002-1.045-.22-1.407-.613-.363-.392-.545-.919-.501-1.451-.047-.536.157-1.063.553-1.426.397-.364.94-.522 1.469-.428 1.2.09 1.722 1.002 1.836 2.118z" transform="translate(21)"/>
            <path fill="#E8E8E8" d="M110.136 186.844c-.99-.114-1.572-.654-1.53-1.638.042-.984.6-1.638 1.578-1.53.427.012.83.195 1.121.507.291.313.445.728.427 1.155-.006 1.002-.63 1.47-1.596 1.506z" transform="translate(21)"/>
        </g>
    </g>
</svg>
