<svg xmlns="http://www.w3.org/2000/svg" viewBox="0 0 54 54"><defs><style>.cls-1{fill:#1a1a1a;}.cls-2{fill:#dcddde;}.cls-3{fill:#6f7072;}</style></defs><g id="OBJECTS"><path class="cls-1" d="M29.05093,52.05624A25.16521,25.16521,0,1,1,52.08115,29.02713,25.19006,25.19006,0,0,1,29.05093,52.05624ZM29.32,4.42757A22.68937,22.68937,0,0,0,4.45317,29.29607c1.05948,10.5967,10.92121,20.90212,21.518,20.90212,16.15059,0,25.17782-10.99848,23.69194-26.43663C48.6428,13.161,39.91681,5.48661,29.32,4.42757Z"/><path class="cls-2" d="M41.11548,33.31165a16.5096,16.5096,0,0,0-2.92285-.2799,12.61329,12.61329,0,0,0-6.45117,1.82483,8.27439,8.27439,0,0,1-3.3274,1.19836c-.12231.00678-.24511.01007-.36938.01007a17.46192,17.46192,0,0,1-4.9834-1.08,23.58421,23.58421,0,0,0-7.17334-1.4206,14.39559,14.39559,0,0,0-6.55542,1.61261l-.03223.01611a19.58765,19.58765,0,0,0,8.37989,8.96064c6.69433-3.09339,8.27758-.64051,11.64233-.64051,2.14941,0,5.00244-2.37579,5.45654-2.81518,1.30493-1.26325,3.86841-.31012,5.8877.231A19.47158,19.47158,0,0,0,45.927,31.75477a7.16334,7.16334,0,0,1-4.02124,1.62811A4.45205,4.45205,0,0,1,41.11548,33.31165Z"/><path class="cls-1" d="M22.405,22.86891c1.72754.89831,3.21973,1.67419,4.595,1.67419a8.89286,8.89286,0,0,0,4.87817-1.7724c.135-.09039.24683-.16455.33252-.217a6.02348,6.02348,0,0,1,3.22632-.92694,11.60557,11.60557,0,0,1,3.179.57348,9.69524,9.69524,0,0,0,2.5393.48529l.11548-.00164a9.42921,9.42921,0,0,0,4.17163-1.43061l.18189-.09668a19.49872,19.49872,0,0,0-5.24341-8.39593,5.23561,5.23561,0,0,1-2.64478,1.00024c-2.09423.07941-4.41015-2.20227-6.39917-.27685-.4541.43945-1.21215,2.286-3.36157,2.286-3.04638,0-6.71655-5.41144-12.57031-4.49805a19.53613,19.53613,0,0,0-6.89917,9.49469,16.78355,16.78355,0,0,1,4.61841-.69635C17.023,20.07032,20.00708,21.62208,22.405,22.86891Z"/><path class="cls-3" d="M7.45923,26.9748A19.463,19.463,0,0,0,8.8855,34.28248l.0061-.00281c.2959-.14783.58862-.28247.87891-.40851.09619-.04187.19092-.07812.28662-.11767.1958-.08081.39087-.15973.584-.2312.10987-.04071.21875-.07764.32764-.11542.17749-.06146.35425-.1203.5293-.1742q.16626-.05107.33081-.09765.26074-.07389.51782-.13672c.10547-.02594.21069-.05231.31519-.07562.18139-.04053.36059-.0755.5393-.10846.09009-.0166.18115-.03565.27051-.05042.2312-.03827.46-.06988.687-.09649.03443-.004.06983-.0102.10449-.014.26123-.02875.51953-.04926.77539-.06378.07813-.00446.155-.00531.23291-.00849.17774-.00726.3545-.01324.52955-.01422.0288-.00018.05835-.00232.08691-.00232.05078,0,.09985.004.15015.00452q.32519.00319.644.01941c.07641.004.15308.00714.22925.01208.27221.01776.54223.04029.80786.07062.02.00226.03955.00555.05957.00787.24853.02924.49365.06421.73633.10285.07739.01233.15405.02533.231.03851q.301.05165.59644.11109c.06177.01239.124.02392.1853.03686q.37426.07874.73926.1676c.05518.01343.10913.02771.16406.04145q.29444.07369.5835.15191.10694.029.21264.05829.29921.08322.5918.1695c.03809.01123.07666.02209.11475.03338q.34789.10345.68628.20886c.09009.028.17822.05549.26758.08344q.24279.0759.48071.15069.38781.122.76416.2389l.01977.006q.30323.09366.59815.18017c.05908.01728.11719.03394.17554.05079q.24315.07021.4812.13379c.05029.01342.10107.02758.15088.04058.1997.05194.397.1001.5913.14325.0376.0083.07422.015.11133.02289q.23658.05053.46826.09009c.05591.00958.11182.01874.16724.02728q.23658.03663.46753.05976c.03223.00323.06519.00811.09717.01086.18091.01581.35913.02356.53515.025.12183.001.24292.00031.36231-.00628h.00024l.00074-.00006a3.50146,3.50146,0,0,0,.49951-.06751c.05566-.01129.11132-.02789.167-.04156.11084-.02735.22168-.05652.333-.09272.06445-.021.12939-.045.19433-.06878.10474-.03833.20948-.0788.31519-.12348.0664-.02813.13305-.05664.20019-.087q.1637-.074.33057-.15558c.06519-.0318.12964-.06244.19556-.09564q.1919-.09678.39013-.20063c.22315-.11651.45069-.23645.689-.36029l.06885-.03509q.25305-.1311.51977-.26306c.06909-.03406.14136-.06726.21216-.10114.14062-.06744.28369-.134.43115-.2.084-.03754.17017-.07391.25659-.11072q.2157-.09164.44141-.17859c.093-.03595.18628-.07116.282-.10571.15869-.05719.32349-.11078.49048-.16345.094-.0296.18579-.06012.28272-.088.20556-.05933.42016-.11255.6394-.163.06567-.01513.12695-.03308.19385-.0473q.4325-.09192.90185-.15595c.07959-.0108.16553-.01617.24658-.02557.23853-.02765.48145-.05139.73511-.06628.12232-.00721.251-.00885.377-.01282.14721-.00464.28759-.01489.43994-.01489.06176,0,.13257.00854.19507.00934.29785.00378.61059.02154.92919.04437.15259.01092.29908.01629.45679.03192.48413.0481.98657.11365,1.52.21027a3.41,3.41,0,0,0,.65357.05169c.07251-.00085.14257-.01288.21435-.01825a3.66711,3.66711,0,0,0,.41553-.0484c.08179-.01568.16211-.03894.24267-.05975.123-.03174.24561-.06482.36622-.10718.08325-.0293.16552-.06256.2478-.09637.116-.04761.2312-.09772.34546-.15332.0813-.03974.16235-.08057.24292-.12372q.171-.09156.3396-.19165c.07812-.04651.15649-.09235.23388-.14112.11646-.073.23194-.14849.34693-.22534.07226-.04822.14477-.09527.21679-.14453q.20764-.14218.41333-.28741c.221-.15534.44141-.31079.66138-.46167a18.71692,18.71692,0,0,0-.322-8.18451,10.38391,10.38391,0,0,1-4.613,1.54736h0c-.04785.00134-.096.002-.1438.002-.041,0-.0813-.00683-.12231-.00781-.16382-.00378-.32715-.01379-.48975-.03119-.06079-.00647-.12133-.0119-.18188-.02-.209-.028-.41773-.06207-.62573-.10589l-.02662-.00629c-.20752-.04425-.415-.0954-.62207-.14941q-.11132-.02893-.22216-.05915-.2505-.06783-.50122-.138c-.23926-.06714-.47876-.134-.71949-.19732-.033-.00861-.06616-.01612-.09912-.0246q-.2688-.06941-.54028-.12817c-.064-.01386-.12818-.02674-.19214-.03949q-.26441-.05247-.53174-.088c-.04541-.006-.09033-.0144-.136-.01965A6.25983,6.25983,0,0,0,35.489,22.63c-.06372-.00061-.12817.00385-.19238.00543-.136.00348-.2727.01093-.41016.0254-.07666.00805-.1538.01983-.23071.03161-.13159.02014-.26391.04688-.397.0788-.07813.01874-.15674.03778-.2356.061-.14233.04181-.28613.09485-.43066.152-.06958.02759-.13867.05072-.209.08215a5.68645,5.68645,0,0,0-.64868.33911l-.00219.00122A10.47932,10.47932,0,0,1,27,25.5431h0a5.02665,5.02665,0,0,1-.63135-.04517c-.04248-.00537-.08545-.01019-.12793-.0166-.20361-.03058-.40722-.07135-.61206-.12323-.0376-.00958-.07568-.02106-.11328-.03125q-.28895-.07827-.58032-.17981c-.02588-.00909-.05176-.01684-.07788-.02618-.21045-.07562-.42285-.161-.63672-.252q-.07068-.03014-.14185-.06122c-.21142-.09247-.42431-.18964-.64013-.29346-.03125-.015-.06348-.03125-.09473-.04651q-.30505-.14822-.61694-.3078c-.0437-.02215-.08716-.04407-.13111-.06653-.2351-.12066-.47461-.24493-.717-.371-.49682-.25836-1.012-.524-1.54565-.78332-.053-.0257-.10572-.05127-.15894-.07679q-.37756-.18081-.769-.35492c-.04273-.01886-.08643-.037-.1294-.05572q-.3684-.16022-.75073-.30982c-.0376-.01458-.07422-.03-.11181-.04443-.2732-.10461-.55323-.20264-.83814-.29565-.06079-.0199-.12231-.03925-.18384-.05854-.2915-.09149-.58789-.17767-.89257-.2536-.02906-.00726-.05909-.013-.08838-.02008-.28565-.06939-.57862-.12958-.87671-.18255-.061-.01081-.12134-.02271-.18286-.03284q-.47315-.07755-.968-.12311c-.0669-.00616-.135-.01044-.20239-.01562-.33057-.02552-.66651-.04212-1.01221-.04322-.019-.00006-.03711-.00146-.05615-.0014-.33008.0003-.66993.01654-1.0149.04156-.08618.00623-.1726.01374-.25952.02161-.34131.03082-.68774.07068-1.04394.128l-.04077.00562c-.36548.05981-.74195.13971-1.12378.22979-.09571.02259-.19239.04645-.28907.071-.38964.09894-.78515.20813-1.19238.341l-.00146.00037h0A19.50791,19.50791,0,0,0,7.45923,26.9748Z"/></g></svg>