<svg width="61" height="60" viewBox="0 0 61 60" fill="none" xmlns="http://www.w3.org/2000/svg">
<path d="M34.8351 35.8151H31.0901C31.5384 36.7391 31.7709 37.753 31.7701 38.7801C31.7694 39.6358 31.6083 40.4837 31.2951 41.2801H35.2551C34.742 40.4726 34.4354 39.5514 34.3621 38.5975C34.2889 37.6436 34.4513 36.6864 34.8351 35.8101V35.8151Z" fill="white"/>
<path d="M42.935 34.8249C42.1253 34.1594 41.1001 33.8134 40.0527 33.852C39.0054 33.8907 38.0084 34.3115 37.25 35.0349C36.8259 35.4368 36.4876 35.9204 36.2556 36.4567C36.0236 36.9929 35.9026 37.5706 35.9 38.1549C35.9019 38.9762 36.1381 39.78 36.5809 40.4717C37.0238 41.1634 37.6549 41.7144 38.4 42.0599C38.9636 42.3232 39.578 42.4597 40.2 42.4599C41.0875 42.4592 41.9531 42.1842 42.6783 41.6726C43.4035 41.161 43.9528 40.4378 44.2511 39.602C44.5495 38.7661 44.5822 37.8585 44.3448 37.0034C44.1074 36.1482 43.6115 35.3873 42.925 34.8249H42.935Z" fill="#22BF8E"/>
<path d="M20.7101 42.0598C20.8725 42.2688 21.0514 42.4644 21.2451 42.6448C21.5624 42.9484 21.9169 43.2105 22.3001 43.4248C23.0914 43.8708 23.9843 44.1051 24.8926 44.1051C25.8009 44.1051 26.6938 43.8708 27.4851 43.4248C28.0984 43.077 28.6384 42.6134 29.0751 42.0598C29.265 41.8173 29.4324 41.5578 29.5751 41.2848C30.032 40.4343 30.2475 39.475 30.1982 38.5108C30.1488 37.5465 29.8365 36.6142 29.2951 35.8148C29.1098 35.533 28.8953 35.2716 28.6551 35.0348C28.4398 34.8197 28.2074 34.6224 27.9601 34.4448C27.0624 33.7992 25.9858 33.4497 24.8801 33.4448C23.7769 33.4553 22.7035 33.8044 21.8051 34.4448C21.5563 34.6223 21.3222 34.8196 21.1051 35.0348C20.8811 35.275 20.6787 35.5343 20.5001 35.8098C19.9101 36.6879 19.5951 37.7219 19.5951 38.7798C19.5931 39.6521 19.8079 40.5111 20.2201 41.2798C20.3609 41.5533 20.5248 41.8143 20.7101 42.0598Z" fill="white"/>
<path d="M48.1251 32.835C47.6456 31.365 46.6858 30.0989 45.4001 29.24C44.2727 28.5268 42.9587 28.1648 41.6251 28.2H38.0351C36.7852 29.3877 35.1268 30.05 33.4026 30.05C31.6784 30.05 30.02 29.3877 28.7701 28.2H26.6401C26.2211 28.3127 25.789 28.3699 25.3551 28.37C24.9195 28.3697 24.4859 28.3126 24.0651 28.2H17.3601C17.3003 28.2073 17.2399 28.2073 17.1801 28.2L17.0751 28.165C17.0131 28.1495 16.954 28.1242 16.9001 28.09L16.8201 28.04C16.7694 28.0107 16.7224 27.9755 16.6801 27.935L16.6351 27.89C16.5941 27.8451 16.5573 27.7966 16.5251 27.745L16.5001 27.645C16.465 27.5897 16.4396 27.5288 16.4251 27.465C16.4105 27.4328 16.3988 27.3993 16.3901 27.365C16.3822 27.3002 16.3822 27.2347 16.3901 27.17V27.08C16.3828 27.0152 16.3828 26.9498 16.3901 26.885C16.3995 26.8509 16.4112 26.8175 16.4251 26.785C16.4406 26.723 16.4659 26.6639 16.5001 26.61L16.5451 26.535C16.5777 26.4853 16.6145 26.4384 16.6551 26.395L16.7001 26.35C16.7437 26.3075 16.7924 26.2705 16.8451 26.24L16.9201 26.19C16.9761 26.1599 17.0347 26.1348 17.0951 26.115L17.2201 26.075C17.2733 26.0701 17.3269 26.0701 17.3801 26.075C17.8051 26.075 18.2301 26.075 18.6451 26.075H19.2501H21.1001C20.5703 25.2624 20.2857 24.3144 20.2804 23.3444C20.275 22.3744 20.5492 21.4233 21.0701 20.605H17.9001C17.6651 20.605 17.4401 20.605 17.2301 20.605C15.6907 20.6828 14.2214 21.2723 13.0551 22.28C12.0807 23.1233 11.3924 24.2485 11.0851 25.5C10.7495 26.8664 10.8546 28.3039 11.3853 29.607C11.9161 30.9101 12.8453 32.0119 14.0401 32.755C15.1463 33.4091 16.4156 33.7351 17.7001 33.695H20.3051C21.562 32.557 23.1971 31.9267 24.8926 31.9267C26.5882 31.9267 28.2232 32.557 29.4801 33.695H36.4401C37.4133 32.8765 38.6264 32.3968 39.8962 32.3283C41.1659 32.2598 42.4236 32.6062 43.4792 33.3152C44.5348 34.0242 45.3312 35.0574 45.748 36.2588C46.1649 37.4601 46.1797 38.7645 45.7901 39.975C46.9141 39.1248 47.7416 37.9422 48.1551 36.595C48.5182 35.3749 48.5078 34.0741 48.1251 32.86V32.835Z" fill="white"/>
<path d="M45.81 16.71C46.3341 16.7113 46.8464 16.5545 47.28 16.26C47.4989 16.1076 47.6943 15.924 47.86 15.715C48.0424 15.4801 48.1843 15.2165 48.28 14.935C48.3726 14.6681 48.4199 14.3875 48.42 14.105C48.4187 13.4137 48.1431 12.7511 47.6538 12.2627C47.1644 11.7743 46.5013 11.5 45.81 11.5C45.3153 11.4998 44.831 11.6422 44.415 11.91C44.1603 12.0679 43.9338 12.2673 43.745 12.5C43.5838 12.7155 43.4542 12.9529 43.36 13.205C43.2159 13.5989 43.169 14.0218 43.2234 14.4377C43.2778 14.8536 43.4318 15.2502 43.6723 15.5939C43.9129 15.9375 44.2328 16.218 44.605 16.4114C44.9772 16.6049 45.3905 16.7056 45.81 16.705V16.71Z" fill="white"/>
<path d="M26 17.4398C26.4646 17.7488 26.9693 17.9927 27.5 18.1648C27.9001 18.2987 28.3147 18.3843 28.735 18.4198C29.9883 17.2074 31.6638 16.5296 33.4075 16.5296C35.1513 16.5296 36.8268 17.2074 38.08 18.4198H41.68C41.7364 18.4122 41.7936 18.4122 41.85 18.4198L42 18.4998C42.0604 18.5197 42.119 18.5448 42.175 18.5748L42.255 18.6248C42.3076 18.6575 42.3562 18.6961 42.4 18.7398L42.44 18.7798C42.4853 18.8241 42.524 18.8746 42.555 18.9298L42.595 18.9948C42.6293 19.0488 42.6546 19.1079 42.67 19.1698C42.6839 19.2024 42.6956 19.2358 42.705 19.2698C42.7123 19.3346 42.7123 19.4 42.705 19.4648V19.5598C42.7127 19.6229 42.7127 19.6867 42.705 19.7498C42.6956 19.7856 42.6839 19.8206 42.67 19.8548C42.6541 19.9143 42.6306 19.9714 42.6 20.0248C42.5834 20.0526 42.565 20.0794 42.545 20.1048C42.5174 20.1566 42.482 20.2039 42.44 20.2448L42.395 20.2898L42.255 20.3998L42.175 20.4498C42.1189 20.4735 42.0602 20.4903 42 20.4998H41.96L41.825 20.5348C41.7768 20.5396 41.7282 20.5396 41.68 20.5348C41.03 20.5698 40.375 20.5348 39.745 20.5348H39.615C39.9926 21.3954 40.185 22.3258 40.1799 23.2655C40.1747 24.2053 39.972 25.1335 39.585 25.9898H40.585C42.345 25.9898 43.775 25.8298 45.02 25.0498C45.968 24.4619 46.7537 23.646 47.3057 22.6766C47.8576 21.7072 48.1582 20.6151 48.18 19.4998C48.1787 18.8849 48.0877 18.2735 47.91 17.6848C47.2745 18.062 46.549 18.2607 45.81 18.2598C45.1703 18.2582 44.5397 18.1091 43.967 17.8241C43.3943 17.5391 42.8951 17.1258 42.5081 16.6164C42.1211 16.1071 41.8568 15.5154 41.7358 14.8872C41.6147 14.2591 41.6401 13.6115 41.81 12.9948C41.225 12.9598 40.625 12.9598 40.01 12.9598H31.39C31.0498 12.96 30.7131 12.8919 30.3996 12.7596C30.0862 12.6274 29.8025 12.4336 29.5652 12.1899C29.328 11.9461 29.142 11.6572 29.0183 11.3403C28.8946 11.0234 28.8357 10.6849 28.845 10.3448C28.8751 9.80359 28.8751 9.26109 28.845 8.71984V8.64484L28.87 6.53484V6.49984C28.8921 6.13459 28.8407 5.76861 28.7188 5.42359C28.5969 5.07856 28.4071 4.76151 28.1604 4.49119C27.9138 4.22088 27.6154 4.0028 27.283 3.84988C26.9505 3.69696 26.5908 3.61231 26.2251 3.60093C25.8593 3.58955 25.495 3.65169 25.1537 3.78365C24.8124 3.91561 24.5011 4.11472 24.2381 4.36918C23.9751 4.62364 23.7659 4.92829 23.6228 5.26507C23.4797 5.60185 23.4057 5.96392 23.405 6.32984V12.2798C23.4031 12.5102 23.4131 12.7405 23.435 12.9698C23.504 13.9929 23.8497 14.978 24.435 15.8198C24.8617 16.4442 25.3908 16.9919 26 17.4398Z" fill="white"/>
<path d="M29.305 26.5001C29.4 26.6201 29.5 26.7401 29.605 26.8551C29.8055 27.0656 30.0211 27.2611 30.25 27.4401C30.6895 27.7746 31.1788 28.0378 31.7 28.2201C32.8021 28.607 34.003 28.607 35.105 28.2201C35.6242 28.0366 36.1117 27.7735 36.55 27.4401C36.7801 27.2624 36.9957 27.0668 37.195 26.8551C37.4199 26.6153 37.6209 26.354 37.795 26.0751C38.3156 25.2591 38.5946 24.3124 38.5999 23.3445C38.6052 22.3765 38.3366 21.4268 37.825 20.6051C37.6561 20.3266 37.4602 20.0653 37.24 19.8251C37.0478 19.6136 36.8388 19.418 36.615 19.2401C36.1981 18.9104 35.7326 18.6473 35.235 18.4601C34.6496 18.2347 34.0274 18.1194 33.4 18.1201C32.7675 18.1215 32.1406 18.2385 31.55 18.4651C30.7861 18.7556 30.101 19.2215 29.55 19.8251C29.46 19.9251 29.375 20.0251 29.295 20.1301C29.4159 20.2904 29.5278 20.4573 29.63 20.6301C30.1875 21.5227 30.4555 22.5658 30.3973 23.6166C30.3392 24.6674 29.9577 25.6745 29.305 26.5001Z" fill="white"/>
<path d="M23.1801 26.0549C23.7985 26.5464 24.5651 26.8143 25.3551 26.8149C26.0549 26.8133 26.7387 26.6045 27.3201 26.2149L27.5301 26.0549C27.6722 25.9451 27.8044 25.823 27.9251 25.6899C28.1409 25.4611 28.3243 25.2037 28.4701 24.9249C28.7346 24.4223 28.8728 23.8629 28.8728 23.2949C28.8728 22.7269 28.7346 22.1675 28.4701 21.6649C28.3243 21.3862 28.1409 21.1287 27.9251 20.8999C27.8225 20.7874 27.7123 20.6821 27.5951 20.5849C27.5051 20.5099 27.4151 20.4399 27.3201 20.3749C26.8581 20.0677 26.3308 19.8725 25.7801 19.8049C25.639 19.7873 25.4972 19.7773 25.3551 19.7749C25.2113 19.7773 25.0678 19.7873 24.9251 19.8049C24.2323 19.8829 23.5786 20.1661 23.0478 20.6181C22.517 21.07 22.1333 21.6702 21.9458 22.3417C21.7583 23.0132 21.7757 23.7253 21.9956 24.3869C22.2155 25.0485 22.6279 25.6293 23.1801 26.0549Z" fill="#22BF8E"/>
<path d="M29.955 43.4251C29.3132 44.1269 28.5323 44.6874 27.662 45.0708C26.7917 45.4543 25.851 45.6523 24.9 45.6523C23.949 45.6523 23.0083 45.4543 22.138 45.0708C21.2677 44.6874 20.4868 44.1269 19.845 43.4251H19.62C18.895 43.4251 18.12 43.4651 17.405 43.4251H17.265L17.11 43.3801C17.0361 43.3578 16.9642 43.3294 16.895 43.2951L16.82 43.2451C16.768 43.2157 16.7208 43.1786 16.68 43.1351L16.65 43.1051C16.6015 43.0575 16.5594 43.0037 16.525 42.9451L16.5 42.8701C16.4658 42.8161 16.4405 42.757 16.425 42.6951C16.4104 42.6628 16.3986 42.6294 16.39 42.5951C16.3827 42.5303 16.3827 42.4649 16.39 42.4001V42.3101C16.3827 42.2453 16.3827 42.1799 16.39 42.1151C16.3986 42.0807 16.4104 42.0473 16.425 42.0151C16.4395 41.9528 16.4649 41.8935 16.5 41.8401L16.55 41.7601C16.5805 41.7102 16.6157 41.6633 16.655 41.6201L16.7 41.5801C16.7448 41.5375 16.7934 41.499 16.845 41.4651L16.92 41.4201C16.9733 41.388 17.0304 41.3628 17.09 41.3451H17.13L17.275 41.3051C17.3215 41.2999 17.3685 41.2999 17.415 41.3051C17.775 41.3051 18.14 41.3051 18.5 41.3051C18.1727 40.5033 18.0029 39.646 18 38.7801C18.0014 37.7511 18.2355 36.7357 18.685 35.8101H17.465C15.7615 35.8199 14.1243 36.4715 12.88 37.6351C12.0606 38.4181 11.4602 39.4017 11.1383 40.4884C10.8164 41.5751 10.7842 42.7271 11.045 43.8301C11.2925 44.9169 11.8199 45.9201 12.575 46.7401C13.3232 47.5647 14.2699 48.1843 15.325 48.5401C16.395 48.9451 17.7 48.9251 18.96 48.9001H19.81H27.655C28.3713 48.9005 29.06 49.1764 29.5784 49.6707C30.0969 50.1649 30.4053 50.8396 30.44 51.5551V51.6301V53.6301C30.4342 54.3758 30.7215 55.094 31.24 55.6301C31.6228 56.0113 32.1099 56.2706 32.6398 56.3753C33.1698 56.48 33.7189 56.4255 34.2179 56.2185C34.7169 56.0115 35.1434 55.6614 35.4437 55.2123C35.7439 54.7632 35.9044 54.2353 35.905 53.6951V49.0001C35.905 48.8951 35.905 48.7901 35.905 48.6801C35.8914 47.3504 35.3916 46.0716 34.5 45.0851C33.9946 44.5499 33.3832 44.1259 32.7048 43.8401C32.0265 43.5543 31.296 43.413 30.56 43.4251H29.955Z" fill="white"/>
<path d="M49.605 32.33C49.0093 30.545 47.8404 29.0069 46.28 27.955C45.7313 27.5803 45.1319 27.2857 44.5 27.08C44.9662 26.9139 45.4137 26.6994 45.835 26.44C47.0168 25.7051 47.9939 24.6837 48.6757 23.4705C49.3574 22.2573 49.7218 20.8916 49.7351 19.5C49.7369 18.4907 49.5433 17.4907 49.1651 16.555C49.699 15.8491 49.9918 14.9901 50 14.105C50.0067 13.2361 49.7415 12.3869 49.2414 11.6763C48.7414 10.9657 48.0316 10.4292 47.2116 10.1421C46.3915 9.85494 45.5021 9.83148 44.668 10.075C43.8339 10.3185 43.0969 10.8167 42.5601 11.5C41.709 11.4228 40.8544 11.3927 40 11.41H31.39C31.2582 11.4111 31.1276 11.385 31.0063 11.3334C30.885 11.2818 30.7757 11.2057 30.685 11.11C30.5915 11.0156 30.5184 10.9029 30.4703 10.7791C30.4221 10.6552 30.3999 10.5228 30.4051 10.39C30.429 9.80499 30.4207 9.21909 30.38 8.635L30.4051 6.58C30.4395 5.97274 30.3466 5.36499 30.1322 4.7958C29.9178 4.22661 29.5866 3.70857 29.16 3.275C28.5591 2.67485 27.7937 2.26634 26.9606 2.10111C26.1275 1.93588 25.2642 2.02135 24.4797 2.34671C23.6951 2.67208 23.0247 3.22273 22.5531 3.92906C22.0815 4.63539 21.8299 5.46569 21.83 6.315V12.265C21.83 12.51 21.83 12.805 21.865 13.11C21.953 14.4094 22.3919 15.6605 23.135 16.73C23.5438 17.307 24.0262 17.8281 24.57 18.28C23.8738 18.3873 23.2078 18.6394 22.615 19.02H17.92C17.665 19.02 17.42 19.02 17.135 19.02C15.2719 19.1147 13.4911 19.8172 12.065 21.02C10.8297 22.0742 9.95549 23.4887 9.56505 25.065C9.1432 26.7557 9.26884 28.5366 9.92388 30.1513C10.5789 31.766 11.7296 33.1311 13.21 34.05C13.6703 34.338 14.1618 34.5728 14.675 34.75C13.619 35.1398 12.6504 35.7345 11.825 36.5C10.8142 37.4603 10.0689 38.6657 9.66154 39.9992C9.25415 41.3326 9.19852 42.7487 9.50005 44.11C9.79446 45.4695 10.443 46.727 11.38 47.755C12.2978 48.7828 13.4656 49.5561 14.7701 50C16.12 50.5 17.6451 50.5 18.9851 50.465H19.81H27.6551C27.9725 50.4685 28.2767 50.5931 28.5053 50.8133C28.7339 51.0336 28.8698 51.3329 28.885 51.65V53.585C28.8596 54.7233 29.2871 55.8252 30.0738 56.6484C30.8604 57.4716 31.9417 57.9488 33.0801 57.975H33.21C34.3366 57.9456 35.4084 57.4825 36.202 56.6824C36.9956 55.8823 37.4498 54.8068 37.4701 53.68V48.63C37.4426 46.9328 36.7993 45.3033 35.66 44.045C35.2252 43.5683 34.7192 43.1618 34.16 42.84H36.7001C37.7836 43.6638 39.122 44.081 40.4817 44.0189C41.8414 43.9568 43.1362 43.4192 44.14 42.5C45.441 42.1101 46.6248 41.4035 47.5856 40.4436C48.5463 39.4838 49.2539 38.3006 49.6451 37C50.1049 35.4684 50.091 33.8335 49.605 32.31V32.33ZM43.3601 13.22C43.453 12.9627 43.5826 12.7202 43.745 12.5C43.9322 12.2602 44.1588 12.0539 44.4151 11.89C44.8332 11.6292 45.3173 11.4938 45.8101 11.5C46.5023 11.5 47.1661 11.775 47.6556 12.2645C48.1451 12.7539 48.42 13.4178 48.42 14.11C48.42 14.3925 48.3726 14.6731 48.28 14.94C48.1844 15.2215 48.0424 15.4851 47.8601 15.72C47.6944 15.929 47.499 16.1126 47.28 16.265C46.8249 16.5767 46.2825 16.7359 45.7311 16.7196C45.1796 16.7033 44.6476 16.5124 44.2116 16.1743C43.7757 15.8362 43.4583 15.3684 43.3052 14.8384C43.1522 14.3084 43.1714 13.7434 43.3601 13.225V13.22ZM24.39 15.81C23.8047 14.9681 23.4591 13.983 23.39 12.96C23.3681 12.7307 23.3581 12.5004 23.3601 12.27V6.32C23.3839 5.59198 23.696 4.90326 24.2277 4.40535C24.4909 4.15881 24.8002 3.96654 25.1377 3.83951C25.4753 3.71248 25.8346 3.65318 26.195 3.665C26.5555 3.67682 26.9101 3.75952 27.2387 3.90839C27.5672 4.05726 27.8632 4.26938 28.1097 4.53263C28.3562 4.79588 28.5485 5.10512 28.6755 5.44268C28.8026 5.78024 28.8619 6.13952 28.85 6.5V6.555L28.8251 8.665V8.74C28.8551 9.28125 28.8551 9.82375 28.8251 10.365C28.8157 10.7051 28.8746 11.0435 28.9983 11.3604C29.122 11.6773 29.308 11.9662 29.5453 12.21C29.7825 12.4538 30.0662 12.6475 30.3797 12.7798C30.6931 12.9121 31.0299 12.9801 31.3701 12.98H40C40.615 12.98 41.215 12.98 41.8 13.015C41.6301 13.6317 41.6047 14.2793 41.7258 14.9074C41.8469 15.5355 42.1112 16.1272 42.4981 16.6366C42.8851 17.146 43.3843 17.5592 43.957 17.8442C44.5297 18.1293 45.1604 18.2784 45.8 18.28C46.539 18.2809 47.2646 18.0822 47.9001 17.705C48.0792 18.2868 48.1735 18.8913 48.18 19.5C48.1669 20.6282 47.8684 21.7348 47.3124 22.7166C46.7564 23.6984 45.9609 24.5235 45 25.115C43.7551 25.895 42.325 26.055 40.565 26.055H39.565C39.9521 25.1986 40.1547 24.2704 40.1599 23.3307C40.1651 22.3909 39.9726 21.4606 39.5951 20.6H39.725C40.355 20.6 41.01 20.63 41.66 20.6C41.7083 20.6048 41.7568 20.6048 41.805 20.6L41.94 20.565L42 20.5C42.0611 20.4841 42.1199 20.4606 42.175 20.43L42.2551 20.38L42.3951 20.27L42.44 20.225C42.482 20.184 42.5175 20.1368 42.545 20.085C42.5651 20.0595 42.5834 20.0328 42.6 20.005C42.6306 19.9516 42.6541 19.8944 42.67 19.835C42.684 19.8008 42.6957 19.7657 42.7051 19.73C42.7127 19.6669 42.7127 19.6031 42.7051 19.54V19.445C42.7124 19.3802 42.7124 19.3148 42.7051 19.25C42.6956 19.2159 42.6839 19.1825 42.67 19.15C42.6546 19.088 42.6293 19.0289 42.5951 18.975L42.555 18.91C42.5241 18.8548 42.4853 18.8043 42.44 18.76L42.4001 18.72C42.3562 18.6763 42.3076 18.6377 42.2551 18.605L42.175 18.555C42.1184 18.5318 42.0598 18.5134 42 18.5L41.8801 18.465C41.8236 18.4574 41.7665 18.4574 41.71 18.465H38.1101C36.8568 17.2525 35.1813 16.5747 33.4375 16.5747C31.6938 16.5747 30.0183 17.2525 28.765 18.465C28.3327 18.4173 27.9078 18.3165 27.5 18.165C26.9693 17.9928 26.4647 17.7489 26 17.44C25.3739 16.993 24.8293 16.4416 24.39 15.81ZM29.64 20.585C29.5378 20.4122 29.4259 20.2453 29.305 20.085C29.385 19.98 29.47 19.88 29.56 19.78C30.1111 19.1763 30.7961 18.7105 31.56 18.42C32.1506 18.1933 32.7775 18.0764 33.41 18.075C34.0374 18.0743 34.6596 18.1895 35.245 18.415C35.7426 18.6022 36.2081 18.8653 36.625 19.195C36.8488 19.3729 37.0578 19.5685 37.25 19.78C37.4702 20.0202 37.6661 20.2814 37.835 20.56C38.3466 21.3817 38.6152 22.3314 38.6099 23.2993C38.6046 24.2673 38.3256 25.2139 37.805 26.03C37.6309 26.3089 37.4299 26.5701 37.2051 26.81C37.0057 27.0216 36.7901 27.2172 36.5601 27.395C36.1217 27.7284 35.6342 27.9915 35.1151 28.175C34.013 28.5619 32.8121 28.5619 31.71 28.175C31.1888 27.9927 30.6995 27.7294 30.26 27.395C30.0311 27.216 29.8155 27.0204 29.615 26.81C29.51 26.695 29.41 26.575 29.3151 26.455C29.9809 25.6311 30.3714 24.619 30.4315 23.5614C30.4916 22.5038 30.2183 21.454 29.65 20.56L29.64 20.585ZM23.115 20.585C23.6312 20.157 24.2595 19.8863 24.925 19.805C25.0677 19.7874 25.2113 19.7774 25.355 19.775C25.4972 19.7774 25.639 19.7874 25.7801 19.805C26.3307 19.8726 26.8581 20.0678 27.32 20.375C27.415 20.44 27.505 20.51 27.595 20.585C27.7122 20.6822 27.8225 20.7875 27.925 20.9C28.1409 21.1288 28.3243 21.3862 28.47 21.665C28.7346 22.1676 28.8728 22.727 28.8728 23.295C28.8728 23.863 28.7346 24.4224 28.47 24.925C28.3243 25.2038 28.1409 25.4612 27.925 25.69C27.8044 25.8231 27.6722 25.9452 27.5301 26.055L27.32 26.215C26.7386 26.6046 26.0549 26.8134 25.355 26.815C24.6259 26.8255 23.9118 26.6079 23.3123 26.1928C22.7128 25.7777 22.258 25.1857 22.0113 24.4996C21.7645 23.8134 21.7383 23.0673 21.9362 22.3655C22.1341 21.6637 22.5462 21.0412 23.115 20.585ZM34.5 45.085C35.3889 46.0657 35.8902 47.3366 35.91 48.66C35.91 48.77 35.91 48.875 35.91 48.98V53.67C35.9095 54.2102 35.749 54.7382 35.4487 55.1873C35.1484 55.6363 34.7219 55.9865 34.2229 56.1934C33.7239 56.4004 33.1748 56.455 32.6449 56.3503C32.1149 56.2455 31.6278 55.9862 31.2451 55.605C30.7266 55.069 30.4393 54.3508 30.445 53.605V51.605V51.53C30.4104 50.8146 30.1019 50.1398 29.5835 49.6456C29.065 49.1514 28.3763 48.8754 27.66 48.875H19.81H18.96C17.7 48.875 16.395 48.92 15.325 48.515C14.2699 48.1593 13.3233 47.5396 12.575 46.715C11.82 45.895 11.2925 44.8918 11.045 43.805C10.7843 42.702 10.8164 41.5501 11.1383 40.4634C11.4602 39.3767 12.0606 38.393 12.88 37.61C14.1243 36.4465 15.7615 35.7948 17.465 35.785H18.695C18.2384 36.7174 18.0007 37.7418 18 38.78C18.0099 39.6274 18.1796 40.4654 18.5 41.25C18.14 41.25 17.7751 41.25 17.4151 41.25C17.3685 41.2448 17.3216 41.2448 17.275 41.25L17.13 41.29H17.09C17.0304 41.3077 16.9733 41.3329 16.92 41.365L16.845 41.41C16.7934 41.444 16.7449 41.4825 16.7001 41.525L16.6551 41.565C16.6157 41.6083 16.5806 41.6551 16.55 41.705L16.5 41.785C16.465 41.8385 16.4396 41.8977 16.425 41.96C16.4104 41.9922 16.3987 42.0257 16.39 42.06C16.3827 42.1248 16.3827 42.1902 16.39 42.255V42.345C16.3827 42.4098 16.3827 42.4752 16.39 42.54C16.3987 42.5743 16.4104 42.6078 16.425 42.64C16.4405 42.702 16.4658 42.7611 16.5 42.815L16.545 42.885C16.5795 42.9436 16.6215 42.9974 16.67 43.045L16.7001 43.075C16.7409 43.1185 16.7881 43.1556 16.84 43.185L16.9151 43.235C16.9842 43.2693 17.0561 43.2978 17.13 43.32L17.285 43.365H17.425C18.165 43.41 18.925 43.39 19.64 43.365H19.865C20.5069 44.0668 21.2878 44.6273 22.1581 45.0108C23.0284 45.3942 23.969 45.5923 24.92 45.5923C25.8711 45.5923 26.8117 45.3942 27.682 45.0108C28.5523 44.6273 29.3332 44.0668 29.975 43.365H30.5651C31.3047 43.3613 32.0369 43.5124 32.7146 43.8086C33.3923 44.1048 34.0005 44.5396 34.5 45.085ZM19.57 38.78C19.5774 37.7195 19.9012 36.6853 20.5 35.81C20.6898 35.533 20.904 35.2737 21.14 35.035C21.3571 34.8198 21.5912 34.6225 21.84 34.445C22.7384 33.8045 23.8118 33.4555 24.9151 33.445C26.0207 33.4498 27.0974 33.7994 27.9951 34.445C28.2423 34.6225 28.4747 34.8199 28.6901 35.035C28.9302 35.2717 29.1448 35.5332 29.33 35.815C29.8714 36.6144 30.1837 37.5467 30.2331 38.5109C30.2825 39.4752 30.067 40.4345 29.6101 41.285C29.4673 41.558 29.3 41.8174 29.1101 42.06C28.6675 42.6156 28.1205 43.0793 27.5 43.425C26.7088 43.871 25.8158 44.1053 24.9075 44.1053C23.9993 44.1053 23.1063 43.871 22.3151 43.425C21.9318 43.2107 21.5773 42.9486 21.26 42.645C21.0664 42.4646 20.8875 42.269 20.725 42.06C20.5363 41.8148 20.369 41.5539 20.225 41.28C19.8024 40.514 19.5773 39.6548 19.57 38.78ZM31.295 41.28C31.6083 40.4837 31.7694 39.6357 31.7701 38.78C31.7709 37.7529 31.5384 36.7391 31.09 35.815H34.835C34.4513 36.6913 34.2889 37.6486 34.3621 38.6024C34.4353 39.5563 34.742 40.4775 35.2551 41.285L31.295 41.28ZM43.3451 41.09C42.6095 41.8688 41.6098 42.345 40.5416 42.4254C39.4734 42.5059 38.4137 42.1847 37.5699 41.5247C36.7261 40.8648 36.1589 39.9137 35.9796 38.8576C35.8002 37.8015 36.0214 36.7165 36.6 35.815C36.9656 35.2549 37.4548 34.7862 38.03 34.445C38.9218 33.9202 39.9729 33.7345 40.9905 33.9221C42.0082 34.1096 42.924 34.6579 43.57 35.4662C44.2161 36.2745 44.549 37.2886 44.5076 38.3226C44.4663 39.3565 44.0535 40.3408 43.3451 41.095V41.09ZM48.155 36.56C47.7415 37.9072 46.914 39.0899 45.7901 39.94C46.1796 38.7295 46.1648 37.4251 45.748 36.2238C45.3311 35.0224 44.5348 33.9892 43.4791 33.2802C42.4235 32.5712 41.1659 32.2248 39.8961 32.2933C38.6263 32.3618 37.4133 32.8415 36.44 33.66H29.5C28.2431 32.522 26.6081 31.8918 24.9125 31.8918C23.217 31.8918 21.582 32.522 20.3251 33.66H17.7001C16.4156 33.7001 15.1462 33.3741 14.04 32.72C12.852 31.979 11.9273 30.8829 11.3969 29.5871C10.8666 28.2912 10.7574 26.8613 11.085 25.5C11.3942 24.2521 12.0824 23.1307 13.055 22.29C14.2213 21.2823 15.6907 20.6928 17.23 20.615C17.44 20.615 17.665 20.615 17.9 20.615H21.07C20.5492 21.4333 20.275 22.3844 20.2803 23.3544C20.2856 24.3245 20.5702 25.2724 21.1 26.085H19.23H18.625C18.21 26.085 17.7851 26.085 17.3601 26.085C17.3068 26.0801 17.2533 26.0801 17.2001 26.085L17.0751 26.125C17.0146 26.1448 16.9561 26.1699 16.9 26.2L16.8251 26.25C16.7724 26.2806 16.7237 26.3175 16.68 26.36L16.635 26.405C16.5945 26.4485 16.5577 26.4953 16.525 26.545L16.48 26.62C16.4458 26.6739 16.4205 26.733 16.405 26.795C16.3912 26.8275 16.3795 26.8609 16.37 26.895C16.3627 26.9598 16.3627 27.0252 16.37 27.09V27.18C16.3621 27.2448 16.3621 27.3102 16.37 27.375C16.3787 27.4093 16.3904 27.4428 16.405 27.475C16.4195 27.5389 16.4449 27.5998 16.48 27.655L16.525 27.725C16.5572 27.7766 16.5941 27.8251 16.635 27.87L16.68 27.915C16.7223 27.9555 16.7693 27.9907 16.82 28.02L16.9 28.07C16.954 28.1042 17.0131 28.1296 17.0751 28.145L17.18 28.18C17.2398 28.1873 17.3003 28.1873 17.3601 28.18H24.0651C24.4858 28.2926 24.9195 28.3498 25.355 28.35C25.789 28.3499 26.221 28.2927 26.64 28.18H28.7701C30.02 29.3677 31.6783 30.03 33.4025 30.03C35.1268 30.03 36.7851 29.3677 38.035 28.18H41.625C42.9586 28.1449 44.2726 28.5068 45.4001 29.22C46.6858 30.0789 47.6455 31.345 48.125 32.815C48.5108 34.0337 48.5212 35.3403 48.155 36.565V36.56Z" fill="black"/>
</svg>
